/* XPM */
static char *_79ae44065bc40dcd2e2071e5815895absycUicjJHc4RGeZ[] = {
/* columns rows colors chars-per-pixel */
"64 64 65 1 ",
"  c #117F13",
". c #39663A",
"X c #3A6E3F",
"o c #36793F",
"O c #3C7B3E",
"+ c #4D3B4C",
"@ c #377942",
"# c #3A7944",
"$ c #454545",
"% c #484547",
"& c #464B46",
"* c #4B434B",
"= c #4A4A4A",
"- c #445344",
"; c #445844",
": c #545454",
"> c #555F56",
", c #5C5C5C",
"< c #427C45",
"1 c #4B744E",
"2 c #577257",
"3 c #5A715B",
"4 c #5B7A5F",
"5 c #635E63",
"6 c #5D7860",
"7 c #636363",
"8 c #636D63",
"9 c #6B666B",
"0 c #696969",
"q c #617363",
"w c #6D786E",
"e c #716270",
"r c #706E70",
"t c #737373",
"y c #757B76",
"u c #7A777A",
"i c #7B7B7B",
"p c #008304",
"a c #048208",
"s c #0E8115",
"d c #118116",
"f c #118219",
"g c #128B25",
"h c #148F2A",
"j c #089227",
"k c #14912D",
"l c #079B32",
"z c #149531",
"x c #159A35",
"c c #169E3A",
"v c #1B9C3B",
"b c #268E3C",
"n c #209C3D",
"m c #00A42F",
"M c #01A134",
"N c #0AA339",
"B c #15A03C",
"V c #3C8E49",
"C c #3D914B",
"Z c #43804C",
"A c #418F4D",
"S c #40904D",
"D c #4E8656",
"F c #528259",
"G c #4A9556",
/* pixels */
"fffffffffffffddfdffdfdddfdfffffffffffffffffffffffffffffff ffs.*=",
"fffffffdsdsdsdddsss dd  dd    dfffffffd      s  s  sffffapp a.*=",
"ffffffffhhhkhfdhkhhhhhhhhhhhhkgdffffffghkhhhhhhkhhhffffsO1<hjX*=",
"ssffffdgBBxBxfdkBBBBBBBBBBBBBBzsfsdsfskBcBcBBBBcBBBgsffp3eqBN#*=",
"ffffffdgBBxxzddkvxxBBBxvvxccccldfffffskBcccccccccccg ffa293vN#+=",
";&oxvvlVqqqqq88qqqqqqqqqqDNvvBV&-tFw88qq6nvvvvvNC8688838000qq>==",
"=+@MlMMC9999000099900097eFmlMMb**tii90098NMMMMlmA990990900090,==",
"=%1GGVCD900000000000000094CAVSZ=%rit07000ACASCACF900000000000:==",
"=$9iuree00000000000000000090095%%riy0000099999990000000000r90,%=",
"=$7ii00e000007009e9000909000087==riu00700700re900000070007ee0,%=",
"=$7iuyiittuytuttiuuituyyttuytu0%%riyyutyuyttiuuittiyttuttiiiu7$=",
"=$7iiiiFiiiiiiiiiiiFiiiiiiiiiit%%tiiiiiiiiiiiiiFiiiiiiiiiFiii7$=",
"=%,tttrtrttrtrtrrrtrrrwttttrtt8==0trtrrtttrtrttrttrttrtwrtrrt,$=",
"====$=$==$=$====%=====%=%==%%&====$====$%=$=$=$=%=%==$$==$======",
"==%==$==$====$$==%%$$==%==%%%%%=$%=$$=$==$=$=$====$=$=$=$===$===",
",,7,7,,,7,,7,7,:$:0w7,7,,,7,7,7,,7,7,77,,7,7,7==:0077,7,7,,,7,7,",
"00000000000000r,$:iiu00000000r0000000000000000=$7iit000000000000",
"007000000700000:$:yit7007000000700000007000000:$,ii0700000070000",
"000000000000000:$:yut7000070000000000000000007:$7ii0000700000000",
"000000000000000,$:uut0000000000000000000000000=$,iir000000000000",
"000000000007000,%:yir0000000000000000000000000:$7ii0000000000000",
"700000000009000:$:iir0000000000000000000070000=$,iir000000000000",
"00000000000000e,$:uir000000000er00000000000000=$7ii0000000000000",
"uyuyuuyuyuuyuyu5$:uyuyuyuuyuuyiiuuyuyuuyuyuyuy:$,iiyyuiuuuuyuyit",
"iiiiiiiiiiiiFii5$:iiiiiiiiiiFiiiiiiiiiiiiiiiii:$7iiiiiiFiiFiiiii",
"000r0000r00r00u5$=0000r0w00r00ue000000wr00r0r0=$,r00teu00000ueeu",
"$%=$$$$$$$=$$$$===%%$$$$$$%$$$$%%%$$$$%$$$$%$%==%$$$**$$$$$$%%%%",
"================%======%========================================",
"==,yt7757777777777777077777770,==0tr7777777777777777777777777:==",
"=$7iir0000000000000000000000007%%tiu0000000000000000000000000,==",
"=$7iyr000000000000000000000000,=$0iu0000000000000000000000000,==",
"=$7ii00000000000000000000000007==riy0000000000000000000000000:==",
"&$7ii0707000000000700000000000,==wiu0000000000000000000008000,%=",
"=$7iu00000000000000000000070007=%0iu0000000007000000000000000,%=",
"=$7ii00000000000070087000700007&%0iy0070000000000007000000000:%=",
"=$7iir0r00r00000r0r00rr00rr00w7==rii0r000r00000000r0r0000000r,$=",
"=$7iiiyiiiiiiiiiiiiuiyuiuiiiiir%%riiiiiiiiiiiiiiiiiuuiuiiiiyi7$=",
"=$0iiiiiiiiiiiiiiiFiiiiiiiiiiit%$tiiiiiiiiiiiiiiiiiyiiiyiiiyi0$=",
"=%:5,7,7,,77,5,555e9,77,7,57,7,==,7,,,77,,7,77,,77,777,757,77:==",
"=&%$$$$$$$$$$$$$$$$*$$$$$$$$$$$==$$$$$$$$$$$$$$$$$$$$$$$$$$$$===",
"=:==:==:=:==:=:===::===:=:==:=====:==:=:==:==:===::::==:=::=:==:",
"000700000000000:$:uir0000700000000000700000007:$,yu0000770077000",
"000000000000000,$:yir0000000000000000000000000=$,ii0700000000000",
"000000000070000:$:uur0000000000000000000000000:$7ii0000000000700",
"000000000000000,%:uiw7000000000000007000000000=$5iyr700000000000",
"007000070000000:$:yir0000007000000000000070007=$7ii0000007000000",
"000000000000000>%:yir0000000000080000000000000:$7iir000000000007",
"700070707007070:$:iir7000070770807007007070707:$,ii0707007070070",
"rrwrrrrrrwtrrrt>$=yitrrrrrwrrrrrwrrrrrrrrrrrrr=$,iitrrrwrrrrrrrr",
"iiiyiiiiiuiiuii5$:uuiiiiiiiuiiiiuiiiuiiiuiiiiy:$5iyiiiiiiyiiiiiy",
"iiiiuiiiiiiiiui7$:uuiiiiiiiiuiuuiiiiiiuyiiuyii:$,iiiiiiiiuyiiiii",
",:,:,:,:>:,::>,==::>:,:,,:,>,,:>,:,:,:,>,:,:,,==:,,:,,::,,,:,::,",
"%%%$$$$$$$$$%%$%%%$$$$$$$$$$$$%==$$$$$$$$$$$$$$$%$$$$$$$$$$$$$%$",
"=%:,>:::::::::::::::::::::::::===:,>::::::::::::::::::::::::::==",
"=$7iur0000000000000000000000707=%riu0000000000000000000000000,%=",
"=%7iy00000000000000000000000005=%rit0000000000000000000000000:==",
"%$7iu00000000000000000000000007=%wiie000000000000000000000000:==",
"=$7iu0000000000700700000070000,=%riuer00070000000790700000700,==",
"=$7ii07000000000000000000000007%%rFi0700000000000000000000000,==",
"=$7iir0000700000800000070000005=$rii0000000070000000000000000:%=",
"=$7iy0000000700000000000700000,=%riy0070000000007007000000070,%=",
"=$eFitttrttttttrttrtttrttttrty0%%riyttttttrtrtrtttttttrttttty,%=",
"=$9iuiiiiiiiiiiiiiiiiiiiiiiiiit%%riiiiuiiiiiiiiiiiiiiiiiiiiii7$=",
"=%9iyiiuyiuiiuyiiiuuiyiuiyiiyuw%&riiuiiiiuiiyiiiiyiiiyiiiyiii7$="
};
