/* XPM */
static char *dea288eae1d44da08fc073c6928f626dPSjpKAbvccP2BnQO[] = {
/* columns rows colors chars-per-pixel */
"64 64 118 2 ",
"   c gray1",
".  c #070707",
"X  c gray3",
"o  c #090909",
"O  c #0B0B0B",
"+  c #0C0C0C",
"@  c gray5",
"#  c #0E0E0E",
"$  c gray6",
"%  c #111111",
"&  c gray7",
"*  c #131313",
"=  c gray8",
"-  c #151515",
";  c #161616",
":  c gray9",
">  c #181818",
",  c #191919",
"<  c gray10",
"1  c #1B1B1B",
"2  c gray11",
"3  c #1D1D1D",
"4  c #1E1E1E",
"5  c gray12",
"6  c #202020",
"7  c gray13",
"8  c #222222",
"9  c #232323",
"0  c gray14",
"q  c #252525",
"w  c gray15",
"e  c #272727",
"r  c #282828",
"t  c gray16",
"y  c #2A2A2A",
"u  c gray17",
"i  c #2C2C2C",
"p  c #2D2D2D",
"a  c gray18",
"s  c #2F2F2F",
"d  c gray19",
"f  c #313131",
"g  c #323232",
"h  c gray20",
"j  c #343434",
"k  c #353535",
"l  c gray21",
"z  c #373737",
"x  c gray22",
"c  c #393939",
"v  c #3A3A3A",
"b  c gray23",
"n  c #3C3C3C",
"m  c gray24",
"M  c #3E3E3E",
"N  c #3F3F3F",
"B  c gray25",
"V  c #414141",
"C  c gray26",
"Z  c #434343",
"A  c #444444",
"S  c gray27",
"D  c #464646",
"F  c gray28",
"G  c #484848",
"H  c #494949",
"J  c gray29",
"K  c #4B4B4B",
"L  c #4C4C4C",
"P  c gray30",
"I  c #4E4E4E",
"U  c gray31",
"Y  c #505050",
"T  c #515151",
"R  c gray32",
"E  c #535353",
"W  c gray33",
"Q  c #555555",
"!  c #565656",
"~  c gray34",
"^  c #585858",
"/  c gray35",
"(  c #5A5A5A",
")  c #5B5B5B",
"_  c gray36",
"`  c #5D5D5D",
"'  c gray37",
"]  c #5F5F5F",
"[  c #606060",
"{  c gray38",
"}  c #626262",
"|  c gray39",
" . c #646464",
".. c #656565",
"X. c gray40",
"o. c #676767",
"O. c #686868",
"+. c DimGray",
"@. c #6A6A6A",
"#. c gray42",
"$. c #6C6C6C",
"%. c #6D6D6D",
"&. c gray43",
"*. c #6F6F6F",
"=. c gray44",
"-. c #717171",
";. c #727272",
":. c gray45",
">. c #747474",
",. c gray46",
"<. c #767676",
"1. c #777777",
"2. c gray47",
"3. c #797979",
"4. c gray48",
"5. c #7B7B7B",
"6. c #7C7C7C",
"7. c gray49",
/* pixels */
"J L J J J J J J J J J J J J J J J J J J J J J J J J J J J J J J J J J J J J L J J J J J J J J J J J J J J J J J J J J J J J J J ",
"J J L J L L J L L J L J J L L J L J J L L J L J J J J J L J J L L L L J J J J J L L L L L J L L J L J J J J L J J L J L L J J L ",
"L %.:.O. . . . . . . . . . . . . . . . . . . . .! J ) %.<. . . . .[  .!  . . . . .[  . . . . . . . .L J O.:.O. . . . . . . . . .",
"L <.4.%.O.O.O.O.O.O.O.O.O.O.O.O.O.O.O.O.O.O.O.O.) J ' 4.<.O.O. .O.O.O.Y O.O.O.O.%.O.O.O.O.O.O.O.O.O.J J :.4.:.O.O.O.O.O.O.O.O.O.",
"Y <.4.%.O.O.O.%.%.O.O.%.O.%.O.%.%.O.%.%.%.O.O.%.) J ' 4.<.O.%.%.O.O.!  .O.O.%.%.O.O.O.%.%.O.%.O.%. .L L :.4.%.O.%.O.%.O.O.%.O.%.",
"L <.4.%.%.O.%.O.O.%.O.O.O.O.O.O.O.O.O.O.O.%.O.O.) J ) 4.<.O.O.O.O.O.L %.O.O.O.O.%.O.O.O.O.O.O.O.O.O.J J :.4.:.O.O.O.O.%.O.O.O.O.",
"L <.4.%.O.O.%.O.O.O.O.O.O.O.O.O.O.O.O.O.O.O.O.O.) J ) 4.4.O.O.O.O.! [ O.O.O.O.O.O.O.O.O.O.O.O.%.O.O.L L %.4.%.O.O.O.O.O.O.O.O.O.",
"L <.4.%.O.O.O.O.O.O.O.%.O.O.%.O.%.O.O.%.O.O.O.O.! J ) 4.<.O.O.O.O.Y O.%.O.%.O.O. .%.O.%.O.O.O. .O.O.Y L :.4.:. .%.O.O.O.%.O.O.%.",
"L <.4.<.:.:.:.<.<.:.:.:.:.%.:.:.:.:.:.:.:.:.:.:.' J ) 6.4.:.:.:.:.) %.:.:.:.:.:.) :.:.:.:.:.:.:.%.:.L J :.4.<.<.:.:.:.:.:.:.:.%.",
"L <.4.4.4.<.4.4.4.4.4.4.4.4.4.4.4.6.4.4.4.4.4.4.[ J ) 4.4.4.4.6.4.Y 4.4.4.4.4.Y <.4.4.4.4.4.<.:.4.4.Y J %.4.4.6.4.4.4.6.4.4.4.4.",
"L  .O.O.O.O.O.O.O.O.O.O.O.O.O.O.O.O.O.O. .O.O.O.) J ! O.O.O.O.O.O.) ) O.O.O.O.A O.O. .O.C C A L O.O.L L  .O.O.O.O.O.O.O.O.O.O.O.",
"J J J J J J J J J L L J J J J J J J L J L J J L J L J L J J J L J J g J J J J 7 C J J e M L J L J L J L J J L L J J J L J J J J ",
"Y ! L Y Y Y ! Y Y Y Y Y L L ! ! Y Y ! Y Y Y Y ! Y Y Y ! ! Y Y Y Y Y j ! C p : p y g g e J L L Y Y Y Y Y Y Y Y Y Y Y Y Y Y Y Y L ",
"O.O.O.O.O.O.O.O.O.O.O.[ J Y <.4.O.O.O.O.O.O. .O. .O. .O.O.O.O.O.O.O.J j 1 p M  .<. .O.[ M M  .O.O.O.O.O.O.O.O.O.%.O.O.O.O.O. .L ",
"%.O.O.O.O.O.O.O.%.O.O.[ L Y 4.4.%.O.O.O.%.O.O.O.%.O.O.O.O.O.O.O.O.O.[ y  .Y L  .4.:.O.O.) C O.O.O.O.O.O.O.%.O.O.O.O.O.O.O.O. .J ",
"O.O.O.%.O.O.%.O.O.O.O.[ J Y 4.4.O.O.%.O.O.O.O.O.O.O.O.%.O.%.O.O.%.O.J [ O.! J  .6.:.O.O.L L O.%.%.O.O.%.%.O.O.%.O.O.O.%.O.O. .L ",
"O.O.O.O.O.O.O.O.%.O.O.[ J Y 4.4.O.%.O.O.O.O.O.O.O.%.O.O.O.O.O.O.O.A p O.O.Y L  .4.:.%.O.J ! O.O.O.O.%.O.O.O.O.O.O.O.O.O.%.O. .L ",
"%.O.O.O.%.O.O.%.O.O.%.[ J ! 4.4.O.O.O.O.%.O.%.O.O.O.O.' g : .   p ! O. .O.! J  .4.<.O.O.Y J O.O.O.O.O.O.O.O.%.O.O.O.O.O.O.O. .L ",
"O.O.O.O.O.O.O.O.O.O.O.[ J Y 4.4.%.O.O.O.O.O.O.O.O.' J . y j ) 1 M O. .%.O.! J  .4.:.O.O.[ C O.O.O.O.%.O.O.O. .O.%.O.O.O.O.O. .L ",
"<.4.<.<.<.<.4.4.<.<.<.%.J Y 4.4.<.<.4.<.4.<.<.<.<.4.A c <.<.<. .: O.<.<.<.) L  .4.<.<.<.<.c <.<.<.4.:.4.<.<.4.<.<.<.4.<.<.<.:.J ",
"4.4.4.4.4.4.4.:. .4.4.O.J ! <.4.4.4.<.4.4.4.4.4.4.4.1 ' 4.4.4.4.Y e %.4.4.! J  .4.4.4.4.:.c 4.4.4.4.4.4.4.4.4.4.4.4.4.4.4.4.:.J ",
") ' ) ' ' ' ' ) c Y ' ! J L ) ' ) ) ' ' ' ) ' ' ' L % ) ' ) ) ) ' M e ) ' Y J Y ' ) ) ) M M ' ) ) ' ) ' ' ) ' ) ) ' ' ! ' ) ) J ",
"J J J J J J J J J g j J J J J J J J J J J J J J C $ 7 J J J J J J J p C J J J J J J J C y J J J J J J J J J J J J J L p J J J J ",
"L [  .' ) ) ) ) ) ) c L ) ) ) ) ) ) ) ) ' ) ) ! 1 1 !  .[ ) ) ' ' ) ! 1 M C 7 : 5 j M j p ) ) ' ) ) L J '  .' ) ) ) c Y ) ) ) ) ",
"L <.4.%.O.%.O.O.O.O.O.! c ) ' O. .O.%.O.O.O.O.7 e J ) 4.<.O.O.%.O.O.O.[ 7 A [ O.L p p 1 $ ) O.O.O.O.L J :.4.:.O.O.O.M  .O.%.O.O.",
"L <.6.%.O.O.O.O.O.%.O.O. .p ! O.O.O.O.O.O.%.O.o A J ) 4.4.O.O.O.O.O.O.%.L O.O.O.O.%. . .e C O.%.O.O.L J %.4.%.O.O.O.j O.O.O.%.O.",
"L <.4.%.%.O.O.O.%.O.O.O.O.' y [ %.O.%.O.O.O.[   Y J ) 4.<.O.O.O.%.O.O.O.) ' O.%.O.O.O.O.g j O.O.O.O.J L :.4.%.O.O.A J O.O.O.O.O.",
"L <.4.%.O.O.O.O.O.O.O.O.O.O.L j O.O.O.O.O.[ 7 7 ' J ' 4.4.O.%.O.O.O.O.O.O.L O.O.O.O.%.O.7 p O.O.O.O.L J %.:.y e 1 c O.%.O.%.O.O.",
"L <.4.%.O.O.%.O.O.%.O.O.%.O.O.y ' O.O.%. .5 e ' ) J ) 4.<.O.O.O.O.O.%.O.O.' O.O.O.%.O.O.L $  .O.O.O.L p p 1 5 c e o 5 c L  .O. .",
"L <.4.%.%.%.O.O.O.%.%.[ Y  .[ J M ! [ ! 1 : [ ) ) J ) 4.4.O.%.O.%.%.O.O.%.O.%.%.O.%.%.%.%.p J O.%.A 5 1 M j :.O.%. .A 7 $ 7 C c ",
"L <.4.4.<.4.4.4.4.6.O.) :.7 C A A L j : ' [ ' Y ' J ) 4.4.4.4.4.6.4.4.4.4.4.4.4.4.4.4.4.4.O.p 4.Y o % C Y %.4.4.4.4.4.4.O.C j 7 ",
"L :.<.<.4.<.4.4. .[ %.<.<.g <.<.4.<.:.y :.<.<.%.J J ) <.<.<.4.<.<.4.4.<.<.<.4.<.<.4.<.4.<.<.5 c % J J J %.<.<.<.4.<.<.<.4.%.Y g ",
"J L L L L L L L L L L L C y J L L L L g j L A L L J L L L L L L L L L L L L L Y L L L L L L 5 $ j L J J L L L L L Y L L L L L L ",
"L J L J L J L L J J J C p c J J L J J M $ p 1 A J J J L L J L J J J J J M A L J J J L J L j $ y J J J J J L L L J L J L L J J L ",
"' [  . . . . . . . . .5 J Y :.:. . .! : C  .[ p M [  . . . . . . . . .! ! Y J [ <.O. .[ M . M [  . . . . . . . . . . . . . .[ L ",
"L [ %.O.O.O.O.O.%.O.c p c J 4.:.L y 7 J O.O.O.%.A p  .O.O.O.O.O.O.O.[ Y O.! L  .4.%.A 5 5 c y  .O.O.%.O.O.O.O.%.O.O.%.O.O.O. .J ",
"O.M ' ) ' Y L L A y C [ J c J 5 y Y O.O.%.O.O.O.O.! e Y  .O.%.[ %.O.O.Y O.! M M p $ e Y O.%.L p O.O.O.%.O.O.O.O.O.%.O.O.O.%.[ L ",
"O.c L g M J A C C ' O.[ J ! <.! L O.O.O.O.O.O.%.O.O.) j 7 c 7 % p [  .M Y 5 $ j ) [  .O.O.O.O.A g O.O.O.O.O.O.O.O.O.O.O.%.O. .L ",
"O.Y 5 ) O.%.O.%.O.O.O.[ J Y <.c L O.O.%.O.O.O.O.%.O.O.O.J : A ' 5 o % o $ 7 C  .4.:.O.O.O.O.O.L A %.O.O.O.%.O.%.O.O.O.%.O.O. .L ",
"O.O.L c  .%.O.O.O.O.O.[ L Y <.<.J L O.O.O.%.O.O.O.O.O.[ e ' O. . .J ! y J ! J  .4.<.O.%.O.O.O.y [ O.O.O.O.O.O.O.%.O.O.O.%.O. .J ",
":.:.:.p ' :.%.:.:.:.%. .L ! 4.4.:.A M  .:.:.%.:.:.%.O.g  .:.:.:.:.:.:.[ e J J  .6.<.:.:.:.:.:.7 :.%.:.:.%.:.:.:.:.:.:.:.:.:.O.J ",
"4.4.4.%.! 4.4.4.4.4.4.%.J Y 4.4.4.4.! A 4.4.4.4.4.' C O.4.4.6.4.4.4.6.6.! c J  .4.4.<.4.6.6.<.y <.4.4.6.4.<.4.4.4.4.4.4.4.4.:.J ",
" .O.O.O.[  . .O.O.O.O.[ J L O.O.O.O.L M  .O.O. .' ) O.O. .O.O.O.O.O.O. . .! J ' O.O.O.O. .O. .j ' O.O. . .O.O.O. . .O.O.O.O.[ L ",
"J J L J J L L J J J J L J J J J j p e 1 g J L J J J c J L J L J J J J L J J J L J J J J L J L J 7 C J L J J L A J J J J L J J J ",
"L Y ! ! Y Y Y Y Y ! Y Y ! Y Y Y L ! Y Y : e C M j g L Y ! Y Y Y Y Y Y Y ! Y Y Y Y Y Y Y Y ! Y Y c j J L Y ! ! ! ! Y Y Y Y Y Y Y ",
"L :.4.%.O.%.%.O.O.O.O.O.O.O.O.%.O.O.O. .) y y A J A ' 4.<.%.O.%.O.O.O.O.O.O.O.%.O.O.O.O.O.O.O.%.O.p C J %.4.%.O.O.O.O.O.O.%.O.O.",
"L <.4.%.%.O.O.O.O.%.O.%.O.O.O.O.O.%.O.%. .g L O.) J ) 4.<.O.O.O.O.O.O.%.O.O.O.O.O.O.O.O.O.O.%.O.O.j J J :.4.:.O.O.O.%.O.%.O.%.O.",
"L <.4.%.O.O.O.O.O.O.O.O.O.O.%.O.O.O.O.O.O.5 ) O.) J ) 4.4.O.O.O.%.O.O.O.%.O.O.O.%.O.O.%.%.O.O.O.O.M L J :.4.%.O.%.O.O.O.O.O.O.O.",
"L <.4.%.O.O.O.%.O.O.O.O.O.%.O.O.O.%.O.%. .1 ' O.) J ) 4.4.O.O.%.O.O.O.O.%.O.O.%.%.O.O.O.O.O.O.O.O.L L J %.4.%.O.O.O.O.O.O.O.O.O.",
"L 4.4.%.O.O.O.O.%.O.O.O.O.O.%.O.O.O.O.O. .: O.O.) J ) 4.4.O.O.O.%.O.O.O.O.O.O.O.O.O.O.O.O.%.O.O.O.' A J :.4.:. .O.%.O.O.%.O.O.%.",
"L <.4.O.O.%.%.O.%.O.O.%.O.O.O.%.O.O.O.O.) 1 O.O.) J ) 4.<.O.O.O.%.O.O.%.%.O.O.O.O.%.O.%.%.%.O.%.O.O.L J :.4.:.O.O.O.%.O.O.O.%.O.",
"L <.4.4.<.<.<.<.<.<.<.<.<.:.<.4.<.4.<.<.[ y <.<.' J ' 4.4.<.<.<.<.<.:.<.<.4.:.4.<.4.:.<.<.<.<.<.4.<.Y J %.4.4.<.<.<.<.<.<.<.<.<.",
"L <.4.4.4.4.4.4.4.4.4.4.6.4.4.4.4.4.4.4.' J 4.4.[ J ' 4.4.4.4.4.6.4.4.4.4.4.4.4.4.4.4.4.6.6.4.4.4.4.Y L :.4.<.4.4.4.4.4.6.4.6.4.",
"J ) ) ) ) ) ! ) ) ) ) ) ) ) ) ) ) ' ) Y j ! ) ) ! J L ' ) ) ) ) ) ) ) ) ) ) ) ) ) ' ) ) ) ) ) ) ) ) L A ) ) ) ) ) ) ) ) ) ) ) ' ",
"J J J J J J J J A J J J J L J J J A p p A J J J J J J J J J J J J J J J J J J J J J J J J J J J A J J J J J J J J J J J J J J J ",
") ! ) ! ) ! ) ) ) ) ) ! J L [ [ ' L Y ) ) ) ) ) ) ! ) ! ) ! ) ) ) ) ! ) ) L J ) [ ' ! ) ! ) ) ) ) ) ! ) ) ! ) ) ! ) ) ! ) ! ) J ",
"O.%.O.O.%.O.O.%.O.O.O.[ L Y 4.4.O. .! O.O.O.O.O.O.%.O.O.%.O.O.%. .O.O.O.O.! J  .4.:.O.O.O.O.O.%.%.O.O.%.O.O.%.O.O.O.O.O.O.O. .J ",
"O.O.O.%.O.O.O.O.O.O.O.[ J ! 4.4.%.O.Y ) O.O.%.O.O.O.O.%.O.O.O.O.O.O.%.O.O.! J  .4.:.O.O.O.%.O.O.O.O.O.O.%.O.O.O.O.O.O.%.O.%. .L ",
"O.O.O.O.O.O.O.O.%.O.O.[ L Y <.4.O.O.) [ O.O.%.O.O.O.O.O.O.O.O.O.O.%.O.O.%.Y J  .4.:.O.O.O.O.O.O.O.O.O.O.O.O.O.O.%.O.O.O.O.O. .J ",
"O.%.O.O.%.O.O.O.O.O.O. .J Y 4.4.O.O.O.O.%.O.O.O.O.%.O.O.%.O.O.O.O.O.O.%.O.! L  .4.:.O.O.%.O.O.%.%.O.O.%.O.O.%.O.O.O.%.O.O.O. .L ",
"O.O.O.O.O.O.%.O.O.O.O.[ L ! <.4.O.O.%.O.O.O.O.O.O.O.O.O.O.O.%.O.O.O.O.O.O.Y J  .4.:. .O.O.O.O.O.O.O.O.O.O.O.O.O.O.%.O.O.%.O. .L ",
"%.%.%.%.O.%.%.%.%.%.%. .J Y 4.4.%.O.%.O.:.%.%.%.%.%.%.%.O.%.%.%.%.%.%.O.%.! L  .4.<.%.%.%.%.%.%.%.%.%.%.%.O.%.%.%.%.%.O.%.%. .J ",
"4.4.4.4.4.4.4.4.6.4.4.O.J Y 4.4.4.4.4.4.4.4.4.4.4.4.4.4.4.4.4.4.4.4.4.4.<.! J  .4.4.4.4.4.4.4.4.4.4.4.4.4.4.4.4.4.4.4.4.4.4.<.J ",
"4.4.4.4.4.4.4.4.6.4.4.%.J Y 4.4.4.4.4.4.4.4.4.4.4.4.4.4.4.4.4.4.4.4.4.4.4.) L  .4.4.4.4.4.4.4.4.4.4.4.4.4.4.4.4.4.4.4.4.4.4.:.L "
};
