/* XPM */
static char *_1e32d420cb44e4dbe81fdd5cd6b511dq6DHJpWOHgE4DKyu[] = {
/* columns rows colors chars-per-pixel */
"64 64 68 1 ",
"  c #117F13",
". c #39673A",
"X c #3A6E3F",
"o c #37793F",
"O c #3C7B3E",
"+ c #4D3B4B",
"@ c #3A7944",
"# c #454545",
"$ c #484547",
"% c #464B46",
"& c #4B434B",
"* c #4A4A4A",
"= c #445344",
"- c #445844",
"; c #545454",
": c #555F56",
"> c #5C5C5C",
", c #427C45",
"< c #4B744E",
"1 c #577257",
"2 c #5B7A5F",
"3 c #635E63",
"4 c #5D7860",
"5 c #636363",
"6 c #636D63",
"7 c #6B666B",
"8 c #676868",
"9 c #696969",
"0 c #617363",
"q c #6D786E",
"w c #716270",
"e c #706E70",
"r c #737373",
"t c #737E74",
"y c #7A777A",
"u c #777878",
"i c #7B7B7B",
"p c #008303",
"a c #028308",
"s c #048511",
"d c #0E8115",
"f c #0F8218",
"g c #118116",
"h c #118219",
"j c #128B25",
"k c #148F2A",
"l c #089227",
"z c #14912D",
"x c #0B9F37",
"c c #149531",
"v c #159A35",
"b c #169E3A",
"n c #1B9C3B",
"m c #2B8D3E",
"M c #209C3D",
"N c #00A42F",
"B c #01A134",
"V c #0AA339",
"C c #15A03C",
"Z c #3C8E49",
"A c #3D914B",
"S c #43804C",
"D c #418F4D",
"F c #40904D",
"G c #4E8656",
"H c #508557",
"J c #538259",
"K c #4A9556",
/* pixels */
"*#5iyyyiiyiiuiiyiiyiiiiiyiiyiie$$eiiiiiyiiiiiyiiiiyiiiiiyiiui5#%",
"*#5iiiiiiiiiiiiiiiiiiiiiiiiiiie%$qiiiiiiiiiiiiiiiiiiiiiiiiiii5$*",
"*#3rrrrrrrrrrrrrrrrreerrrretyie$$9reterrerreerrerrererrrerryi5$%",
"*#>9888898888888599999969597riq$%59978989999699999699995699ii>$*",
"*%>8899989989998999599999999rie%*59999899999899899999999959yi5%*",
"**>9899999999999999999899999yie%*>999999995999999999999999eii5$*",
"*#>8999898999999995998899999tie$*>9995989999999995999999999ii5$%",
"**>8899999989998999999999959yie$*5999999999599999799599999eii>$*",
"**>9899989999999999999899999iie%*>9999999995998999988979959ii6$*",
"*%;e999999999999999999999999iie$*59999999999989999999999999yi5$*",
"***;;;;;;;;;;;;;;;;;;;;;;;*;>>;%**>;;;;;;;;;;;;;;;;;;;;;;;;>:;$*",
"%$##############$$##$####$####$$$##$###$$#$%##$$$####$##%#####$$",
">;>;;>;>;>>:;>>*%%>:>:>;;:>;:>;;>:>>;>;:;>:>;>%%*>:;:>;>;>;::;>;",
"yiiiiiiiiyyiiii>#;yiyiiiiiiiiiiiiiiiiyiiiiiiiy;#5iiiiiiiiiiiiiii",
"iiiiiiiiiiiiiii5#;iiiiiiiiiiiiiiiiiiiiiiiiiiii;#>iiiiiiiiiiiiiii",
"qeeeeeqeeeeerii>#*eeeeeeeeeeeeeee9eeeeeeee9riy;#>eeeeeeeeeeeeeee",
"9998887859959ii5#;5959998985955995959599596ryy;#>999995959959599",
"998999898998eii>#;9999999899999999999999999eit;#:799999999999999",
"8898989999999ii5#*9999599999999999999995999eiy;#;999959999999599",
"999799999898eii>#%9999999989999999999999995eii;#>995999999959999",
"999999989898eii>#;5999959999999995999999999eii;#;999999999999999",
"999998999898eii5#;9999999999999999999999999eiy;#>989989999999999",
"9899995988999ii>#*9995999999899999997569555eyy;%;978895959999959",
"****;*;*;*;**;;**%*;*;;**;**;***;**;;*;;*;;;;;%$*;;**;;**;*;**;*",
"**$############$$$$#########$##$%#$##%$########%##$%####$#%$#$$*",
"**;555>>55>>55>>>>5>5>>5>5>>55>$$>55>>>>>5>55>5>>5>>>5>5>>>5>:$*",
"*#5iiiiiiiiiiiiiiiiiiiiiiiiiiie$$eiiiiiiiiiiiiiiiiiiiiiiiiiii5$*",
"*$5iiiiiiiiiiiiiiiiiiiiiiiiiiiq$%9iiiiiiiiiiiiiiiiiiiiiiiiiii5$*",
"*$>e999999999e99e999e99ee999yiq$$5e9e9e979eee99e99e999e999eii5$*",
"*%>9999899889988999899999999yie$%59999899995599599999898989ii5#*",
"*$>9999999999988999995999999tir$%59999996999999999998998999ii>#*",
"*%>9999999999999988999999699rie$*>999899999999899899999998eii5%*",
"*%>9999999999899999989999999uie%*59999999999998998989999999ii5#*",
"*$>9999999999999899999999999uie$$59999999999999997999889999ii5#*",
"*$>9999999999999999999999999uir$*5e999999999999999999999999ii5#*",
"*$;8555555555585555585555555er9*%>5585559556>59555555596559ei>$*",
"************%****$%*****%***$%*%*$***$%*%**$*$$%************$%**",
"%$#$#%##%#####%$**$$#%##%$#$%%$$#$#%$$%$$%$$$%$%$$$$###$###%#$$$",
"9e99e9e99e999ee;%;99e9e99e99e99999ee9999e9e999;#:99e999e99e99e99",
"iiiiiiiiiiiiiii5#;iiiiiiiiiiiiiiiiiiiiiiiiiiii;#5iiiiiiiiiiiiiii",
"iuiuuiuuuuuuiui>#;uyuyuuuuuyuyuyiiiiyityryyiiu;#>iyytiiyiiiiriir",
"9999999999999yi5#*9999999999999999989999999eii;#;999798999999999",
"999989999998eui>#;8999999899998989898999995eiy;#>959999999998999",
"999899998998eii5#*8989999899999999989999999ryt;#;999899999899989",
"989999989998eii5$*9999898999998999999999999eii;#>999999999999998",
"9999989999989ii>%*9999999979899989999999999eiy;#;999999999998999",
"959999999998eyi5#*9999599888989999999999699eii;#;999999988999998",
"999999999999rii>#;999999e99e999999999999999rii;#>e99999999999999",
"55>>55>5>55>59e;#*55>3>33>33>5>>5>5>5>>55>>8e9;$;>5>>5>5>5>>5>5>",
"$$*%%$%$%$*$$#%***%$*%%*%%%%*$***%*%*$*%$*$%%$%*%$%%*$*$%$*%*$%*",
"***$#$$*$%%$*$*%%$$*##*#%%$*$%%**$$$$%$$$%%$$*$%%$*$%*$$$%*$****",
"*$>rrrrrreereerrrerrrrrerererr8$$8rerrrrrrrereerrrereerrreerr>$*",
"*%5iiiiiiiiiiiiiiiiiiiiiiiiiiie%%riiiiiiiiiiiiiiiiiiiiiiiiiii5#*",
"*$5iurrririruruyruiuirirurruiie$*9yurryruruyrryutyrryitririii9#*",
"*%>9998898888889988888888878iir%*>9898988898888977889599889ii5#*",
"*$>9999999999999777777788989uie$*5777999999999999989999977wii5#*",
"%$>989999999999JAAAZDFD69888ii9%$SFFFA288999999999999997HZKKK<&*",
"*$>799999779997DBxBBBBx67988yie$&mBBBNJw9797797979797787ZNNlNO+*",
"*$:008796666606DxbbbbbZ20066qt0-=mCnnxG60000000006600000ZNMnbo%-",
"*+OVn471pggghbbvbnbbbbVCncghhhhhgcnbbbbnbvbbbvbCz gcbbbCjgggghgg",
"*&@VM0w4ahggjCCCbCbCCCCbCc ffffhgvCbCbCCCCCCCCCCzgfvCCCCjghhhhfh",
"*&Xlk,<Odhhghzzzkkkkkkkkkjhhhhgggjzkkkkzkkkkkkkkjhhjzjkkhghgghhh",
"*&.ahppaghhhgggg   f      hhhhhhhg   g  ggggd ddghhggggdhhhhfhhg",
"*&.shhhhhhghgggghhhhhhhhhhghhhghghhhhhhghhgggghhhhhhhhghhhhhhhhh"
};
