/* XPM */
static char *afbc34c4194b48c0894f3c0f19408433MqVyFEawqZf6e0Op[] = {
/* columns rows colors chars-per-pixel */
"64 64 103 2 ",
"   c #242732",
".  c #262A35",
"X  c #292B37",
"o  c #2B2E39",
"O  c #2E313C",
"+  c #31343E",
"@  c #333641",
"#  c #363944",
"$  c #393C46",
"%  c #3B3E49",
"&  c #3E414B",
"*  c #42444E",
"=  c #444651",
"-  c #464952",
";  c #4A4C55",
":  c #4D4F59",
">  c #4E515A",
",  c #52545D",
"<  c #555760",
"1  c #565962",
"2  c #5A5B65",
"3  c #5E5E68",
"4  c #5C5F68",
"5  c #5B5F6A",
"6  c #5D6069",
"7  c #5E616A",
"8  c #5F626B",
"9  c #60606A",
"0  c #61616B",
"q  c #60636C",
"w  c #62626C",
"e  c #63636D",
"r  c #61646D",
"t  c #62656E",
"y  c #63666F",
"u  c #64646E",
"i  c #65656F",
"p  c #646770",
"a  c #666670",
"s  c #676771",
"d  c #656871",
"f  c #666972",
"g  c #676A73",
"h  c #686872",
"j  c #696973",
"k  c #686B74",
"l  c #6A6A74",
"z  c #6B6B75",
"x  c #696C75",
"c  c #6A6D76",
"v  c #6B6E77",
"b  c #6C6C76",
"n  c #6D6D77",
"m  c #6C6F78",
"M  c #6E6E78",
"N  c #6F6F79",
"B  c #6D7079",
"V  c #6E717A",
"C  c #6F727B",
"Z  c #70707A",
"A  c #71717B",
"S  c #72727C",
"D  c #73737D",
"F  c #74747E",
"G  c #75757F",
"H  c #747780",
"J  c #767680",
"K  c #777781",
"L  c #787882",
"P  c #797983",
"I  c #7A7A84",
"U  c #7B7B85",
"Y  c #7C7C86",
"T  c #7D7D87",
"R  c #7E7E88",
"E  c #7F7F89",
"W  c #80808A",
"Q  c #81818B",
"!  c #82828C",
"~  c #83838D",
"^  c #84848E",
"/  c #85858F",
"(  c #868690",
")  c #878791",
"_  c #888892",
"`  c #898993",
"'  c #8A8A94",
"]  c #8B8B95",
"[  c #8C8C96",
"{  c #8D8D97",
"}  c #8E8E98",
"|  c #8F8F99",
" . c #90909A",
".. c #91919B",
"X. c #92929C",
"o. c #95959F",
"O. c #9696A0",
"+. c #9898A2",
"@. c #9999A3",
"#. c #9B9BA5",
"$. c #9C9CA6",
"%. c #9E9EA8",
"&. c #A1A1AB",
/* pixels */
"h u b s , M a J J Y j F L h F T _ I K G z s z S I z S S z 3 e a i s u 0 3 3 3 3 1 4 1 1 1 1 1 > > - - > 1 > > > > - * - - * * - ",
", 3 1 2 3 , * : 2 2 : , < u 3 0 3 , < 3 3 , : ; 9 e z 3 3 3 3 , , 3 , , , : * $ * * * * $ $ $ $ * * $ $ + + + $ + + $ $ $ + $ + ",
"K / U Q X.u = ; : : , ; : L a j 3 : : , , , , ; I ( T J I _ T S z N n j l j 3 : $ * * * $ $ - > * * * $ $ $ $ $ + $ * * * * * $ ",
"A K G Q _ ; & % - * : * , b M j < * * : , , , ; Y ! S I I ! S Y j z j i s a 3 * + $ $ * $ & * * * - * + + + $ + + $ * * - - * * ",
"A h U [ U > h u 3 2 a 0 M 3 L a 3 , 3 z n z 9 , S T J T T ! n T A N l i h h 3 : , , 1 , > - * $ - - - * * > > * $ $ $ * - * $ * ",
"A h R / u < L L L K ~ ' ) 9 L a P P ! [ _ ~ R D 3 Z I Y I Y S n N h u e w 3 < , k k f f p 4 ; * > > 1 > 4 k f 1 > $ $ * - * * * ",
"G F R G , 3 M K K M U ) M 0 a 3 U J Y R U K G z 3 a T ( ^ I I S G n l M u 3 < 3 , , , , > ; * * ; > - - - * & $ * $ + $ * $ $ * ",
"F U U h 2 A h L W S U ] u W S U J G E / Q U N 3 z 3 J ^ ^ z S J A s h b 0 : : 3 > , > > ; ; ; ; * - - - * & * - $ $ $ $ $ * - * ",
"2 ; ; * 2 2 S _ ) ) ` / F a Z / !  .o.o.P D Q 3 b w , , ; * 3 , 2 , ; * * , , ; 3 2 2 < < > ; ; - - - - - - - - $ * * $ + + + + ",
"< 0 A Z Z 3 M ~ ) { X.X.' ( ( ' @.+.#.#.` ~ ! i l L G D a 3 : ; : , 3 w 3 3 < ; 3 3 2 < 1 , > ; > > - - - - - - - - * $ $ * $ $ ",
"3 0 j z F j K ( ' }  ...O.@.../ $.O.O. .[ o.! 3 i R Y G M 3 < : , < 3 0 2 < < , 2 3 2 , < 1 , ; > > > - > - - - > * $ $ * * $ + ",
", * $ ; 3 2 e U ( ~ Q (  .O...`  .( | Q _ $.U , 3 Z , * , 3 < 3 < : ; $ $ * ; * , 2 2 < , 1 , ; > - - - - - * - * $ $ $ $ $ + + ",
"3 , , z K a 9 K U F K (  .{ } X./ J ~ ^ ] [ z , W U : * s P Y K n j 3 ; ; 3 w : * , 2 < , , , > > - - - - - - * $ $ & * $ + + * ",
"3 , : j K M < < A A U ] } ~ W ) ] Z L | } Z 3 s ! z * ; Z P S l z j 2 ; * 2 w : * ; , < , > > > - > - > - - - - $ * * * $ + $ - ",
"A e ; < M ( j , j S ~ ] ) T U R _ U L } ~ 3 3 U W 9 ; i R G Z h N l e , ; ; 3 9 ; - ; , < > ; > > - - > - - * * $ * * $ + $ * * ",
"j A 3 , 3 ~ Z 2 3 Z Q ( ( / ) ( Q } ^ / N , z ^ Y 3 < S R b Z D h a n a ; * : 9 , - * , < > ; > > > - - - * $ $ & * $ $ $ $ * $ ",
"s N M : * s E N ; 3 R ~ A U [ W [ U [ J 3 3 W ~ s , 3 Y K i i Z c y t y < * - 1 2 ; & ; < < : ; > - * - > * & $ > * $ $ $ & * - ",
"s N A 3 : 0 F N ; , n U Z n J U ~ _ T Z : n U A 3 3 M P G z z b c d d d 2 - - > 2 ; * * ; : ; ; - - - - * $ $ * - $ # $ $ & & * ",
"j z M w : , s S < 3 n G Z n Z S J ~ G Z 3 Z Z i : j K S Z Z z h f y y y 4 > * & , , ; ; = ; ; ; * * - * & & * * $ $ # $ & & & & ",
"j s M j 2 ; : 9 9 Z n 9 s Z j 9 s 9 s n I 3 , 3 , A K l Z D b h y t q 4 4 1 - $ - > , ; & * * & & * $ * - - * + $ $ $ & & & & & ",
"3 3 l D s ; $ ; 3 9 , ; 3 h 3 3 3 ; ; 3 J , * * 3 M M i Z Z s a t 8 4 4 4 2 > & * ; : * # $ $ # $ $ $ + $ * $ + & # & & & & & & ",
"< < 2 9 9 : ; 2 e : * 3 e e e M e 3 * , w i ; * 3 3 3 3 u w 3 3 2 < > > , , ; * - ; - $ # & - * * - * $ + $ * - @ # @ & & # # # ",
": , : ; , , < s e * : Z K M D I S S 3 : < s 3 : 3 : : : 3 , , : > ; - - - - * * , : * $ & ; : ; - ; - * $ + & - # @ # # # @ @ # ",
"* , , : , : ; < , $ 3 Z M h Z h N b j : , ; 3 , 3 : , 3 ; : , ; > - - ; - * * * : * $ $ = ; ; ; - * * - * $ # $ & # # # # + + @ ",
"$ $ $ $ * $ $ * $ ; 3 i e h h M N N b 3 ; * ; * ; * * * * $ * ; - $ # $ $ $ $ # $ # $ % * ; ; : = = = * # @ @ @ o . . O O X X O ",
"$ * * ; ; ; ; 3 3 3 3 3 3 3 h Z n w 3 3 3 9 3 ; ; ; ; * $ $ : u > * $ $ $ $ * & ; * * * = = * * = = % % & % # # . & # O X o O o ",
"* $ $ : 3 3 3 3 s i 3 3 0 0 e e h w 3 e 3 i 3 3 M 3 : ; * * ; 3 1 - $ & $ - , < , : ; ; : : ; = ; = * = : : = & & > , & o @ @ X ",
"* $ + * , < : : 3 3 3 3 0 3 3 3 3 3 3 w 3 3 3 , 3 ; * * * * ; < ; $ # $ $ * > > * * & * ; = = % % % @ % = = % @ O & - # X o O   ",
"* ; ; ; : ; ; , ; ; * ; ; : : : , * * : , 3 : * ; ; ; ; ; ; , 3 > * * - $ * * * % = * & % % % @ % @ @ # $ # @ @ X @ @ @ @ @ @ @ ",
"* ; : ; : : : , < , < < 2 3 3 3 3 , , 3 , 3 3 3 : , , : : ; ; * ; - - ; - * * $ % = = * % @ % % % % % % $ # # # @ @ @ @ $ @ @ @ ",
"* $ + $ * * $ $ $ $ $ $ $ * * * $ $ * * $ $ $ $ * * $ * ; * * $ $ + # $ $ $ $ # @ @ @ @ + + @ @ @ @ O O @ X X @ @ @ o @ o X   . ",
"$ $ * $ * $ $ * * * * * * * ; ; ; * $ * ; ; * * * * * * * * * * & $ $ $ + + # + $ @ + + + + O O % @ O o X @ o X X X X o o X X o ",
"- > > > > > > 1 , 1 1 1 1 , 1 1 1 1 1 1 1 1 < < , , < : : , , , > > - - - - - * - - - * * * * * $ $ & & & & & $ $ $ # & $ # $ & ",
"> > 1 > > > > > > > , , > > 1 1 2 1 , > > > < 1 , < < : : : , : > > > - - - - - * * * * * - * * * * & & & & $ # & & & & $ $ & & ",
"* * * & * * * * > - > - ; ; ; ; ; ; ; > > > ; = = = = = = = = = - * * * & & * & * * $ $ $ $ $ $ * $ + $ $ $ $ $ O # O O O # # O ",
"& $ & $ * * $ $ $ $ $ $ $ $ $ & + # % & & % @ @ % * = % % % % % & & $ $ $ $ + + + + + + + + + . + o . . O . O O . . O O O O O . ",
"> - > - - & $ $ $ $ * * * - - ; - & & & % = = & = : : ; ; = ; = ; - * - - - & + + $ $ $ + $ $ $ $ $ # # O . O + O O # & $ # # # ",
"- - - > - $ $ $ $ & & $ $ $ $ $ & # & & = = % $ = : > : : : : : > - - - ; - * + + + + + + + o o . O O O . O O . O # # & & $ # & ",
"- - - > - & - > 8 6 6 1 > ; * & - ; , d g r < - % = : ; ; = : = - - - * * * $ $ > > 1 1 ; * $ $ & * * * > 1 > - # O O # & # # # ",
"- - - - & $ - > 4 4 4 1 > * $ $ - ; , 6 p 5 , = % % ; ; = = = = - - - * $ * * - * > 1 4 > * $ + & - * * > 4 1 & * O O # & # # & ",
"* > > $ $ & * - * - - - - - - - * - - - - - - & % % % = : = = ; * - - * * $ * * $ $ $ $ $ $ $ $ & & & # # # # # # O O # & # & & ",
"* - & $ $ $ $ * * * * * * - - - & & - & & - & $ % % % % = % % % * & $ & $ * $ $ * $ $ $ $ $ $ $ # # # # # # # # O # O O O # # O ",
"* * * - - $ $ - * * - - - - - - & - - * * - * & = = = = = = % = * & $ & * - * + $ * * $ $ $ $ $ # # # # # # & & # # # O # # # # ",
"$ > > & * - * * - * - - - * - - - - - - ; ; * & = = : = = % % = $ & * * * * $ $ * * * $ $ $ $ $ & & & # & # # & # & & # # # # O ",
"+ & & + $ $ $ $ * * * * * * * * * - * * * * & $ @ % % @ @ @ @ @ + $ $ $ $ $ + + $ * $ * $ $ $ $ # # # # # # # # $ # O # # O O O ",
"$ + + + $ $ $ * * * * - * * * * & * * * & * $ $ % % @ @ @ % % % $ $ + + + $ $ o + $ * $ $ $ $ $ # & & & # # & # # O O O # O O # ",
"- $ + $ - $ $ $ * - - * * * * - * - * * * * & # % % @ @ % % = % * * $ + + $ $ + + $ $ * * $ $ $ # & # & & & & $ # # # # # O # # ",
"* * + + * * $ + & * * * * * * * * * * & & $ $ + = % @ @ @ = = % * - * + o + $ * + + $ * $ $ $ $ # # & # $ # # # O # & # O O # & ",
"$ - & + + * - + + & & * $ & - & = % % = % O @ % % @ O @ = % % = & & % % O O # & @ @ # % % # # % & # # # & & # O # # O O O # # # ",
"$ * * + + $ & $ # $ $ * & & & & % = = % # @ % = % @ @ % % % % % % & & % @ O @ % # O @ # % % # % # & & # # # # # % # # O O # % # ",
"$ * * $ + + $ - # + # * ; & & & % = % % @ @ % % @ @ @ % = % % % & % % % # O O # # # @ # % & % % & & & # # O # # # # O # # # % # ",
"$ $ $ $ + + $ - # # $ & - & & - = = = % % % % % @ @ % % % % % % % % % # # # O O & # # % # % # # & # # & % O # # # O O O # # # # ",
"* $ $ * $ + + $ @ % % # & & & & % % % % % # @ @ O @ % % % % @ % % % % % % # @ O # # & # # @ # # # # O # % # # # # O O # # # # # ",
"* & $ & & + + + # % # O . + + O @ O O # % @ O @ @ # % % % % % % % % % % % # # O @ # # # O . O O O O O O O O O O O O O # # # # # ",
"* $ $ & $ + + + % # O O O @ & O @ @ O O # % % O # % % % % % % % # % # # # # # O # # # O O O @ O O O O O O O # # O O # # # # # # ",
"$ $ $ $ $ $ $ * = @ . @ & & & & % % @ o O % % @ % % % @ @ % % % # % # # # # # @ % % # O O # # % # & & O O O % % O O O O O O O # ",
"% % % % = % % % o @ @ @ # % # % # = % O O O @ = = & % % % = & # % % # # % % # % @ # O O O # % @ # # # O O O @ # # # # # O # # O ",
"o O @ O X   X o @ o @ # $ % % % % % @ O O @ O @ . O O # @ O O O # # # O O O . . O O O . @ % % % # & # # O . . O . . . . O . . O ",
"@ % % o o O @ @ @ o # % @ # % @ % # % # O O O . o O O # # O @ # # O # # . . # O # O O O # # # # # # # # # . . O . O . . O . . # ",
"% % # O % = = @ % # - : % % = # # % > - # @ = % > # O # & % # # & # # % O @ - - & # # - - & # # # # # & - & # & O > - . O # . O ",
"% % @ o # = = @ = # = = @ @ = @ @ % = : % # % % > # O O % # # # & O # # . # - - O O # & - & # # # O # % - # O @ O - & . . # . O ",
"@ % % % % % % % # # % = @ # & % % # % % % % % @ % # # % % % % - & # & & # # & # # O @ # O O O O O O O # # O O O O # @ . # O O # ",
"% % % % % # % % % % % = % % = = % = % # % = % # # # % & % % & & # # # % # # @ O % % # @ # # # # @ # # # % # # # # . O # # O @ # ",
"O o o o o o o o o o X X @ o X @ . O o . O O . @ @ O O O O O O . O @ O O O O O O . O O O O O O O O O O . . . . . O O O O . O # . "
};
