/* XPM */
static char *_ca36a2b57fc46d2a5d47dd5581f222c4q7dzAy6Wr00VyXn[] = {
/* columns rows colors chars-per-pixel */
"64 64 93 2 ",
"   c #040710",
".  c #070A13",
"X  c #080B14",
"o  c #090C15",
"O  c #161922",
"+  c #171A23",
"@  c #1F222B",
"#  c #21242D",
"$  c #22252E",
"%  c #292C35",
"&  c #2A2D36",
"*  c #2B2E37",
"=  c #2C2F38",
"-  c #2D3039",
";  c #2E313A",
":  c #2F323B",
">  c #30333C",
",  c #31343D",
"<  c #32353E",
"1  c #33363F",
"2  c #343740",
"3  c #353841",
"4  c #363942",
"5  c #373A43",
"6  c #383B44",
"7  c #393C45",
"8  c #3A3D46",
"9  c #3B3E47",
"0  c #3C3F48",
"q  c #3D4049",
"w  c #3E414A",
"e  c #3F424B",
"r  c #40434C",
"t  c #41444D",
"y  c #42454E",
"u  c #43464F",
"i  c #444750",
"p  c #454851",
"a  c #464952",
"s  c #474A53",
"d  c #484B54",
"f  c #494C55",
"g  c #4A4D56",
"h  c #4B4E57",
"j  c #4C4F58",
"k  c #4D5059",
"l  c #4E515A",
"z  c #4F525B",
"x  c #50535C",
"c  c #51545D",
"v  c #52555E",
"b  c #53565F",
"n  c #545760",
"m  c #555861",
"M  c #565962",
"N  c #575A63",
"B  c #585B64",
"V  c #595C65",
"C  c #5A5D66",
"Z  c #5B5E67",
"A  c #5C5F68",
"S  c #5D6069",
"D  c #5E616A",
"F  c #5F626B",
"G  c #60636C",
"H  c #61646D",
"J  c #62656E",
"K  c #63666F",
"L  c #646770",
"P  c #656871",
"I  c #666972",
"U  c #676A73",
"Y  c #686B74",
"T  c #696C75",
"R  c #6A6D76",
"E  c #6B6E77",
"W  c #6C6F78",
"Q  c #6D7079",
"!  c #6E717A",
"~  c #6F727B",
"^  c #70737C",
"/  c #71747D",
"(  c #72757E",
")  c #73767F",
"_  c #747780",
"`  c #757881",
"'  c #767982",
"]  c #777A83",
"[  c #787B84",
"{  c #797C85",
"}  c #7A7D86",
"|  c #7B7E87",
" . c #7C7F88",
/* pixels */
"F u f K K V A V K T G A B N F b d x n n a l V a A l A b l B B L A u f K L K K F P T P V V F F N f N A V l l F l P V Y A n G F L ",
"G r e b b f l f l n f l l j b d 4 r a a u f V d F N A d u V F K F u e b b l b b b x j f f l l f 4 u a f i f V d K F K f a G P Y ",
"Y d a V N j l x N n l N V n N x % 1 2 4 1 6 i 4 d a a ; % l A B L a i n b j x l b l f b N N x l ; 4 4 9 0 u f 6 l l l 1 > N P K ",
"Y j b T P A V N V B x F L V V b d b b b l b N f f l f 9 4 b F V K f l P K V F V A N b V K V N b d b l x x b V f b N b e 9 V P G ",
"l 4 e N N d a a l f u x N f j a u l l l l j b l l l f d e e f a j 4 e N N x b l b f f n V N l l r x l x l j n b x b b f u i l a ",
"L f j K A b b N N N x V A N V b u N b n n l b N V V N F l u x b G d j K F V F G K A F K T P K G j K G V N b A K V F F L N j N N ",
"P f f V b a j l u d e r u r a e a F N N b d l N l l f b a 9 x V F u a V b l N N l l l f x b l f x L F B b f b F N V N F x d F K ",
"T l b K V l l l n A b l f f l a u V N N n a l V N V b N a 9 A P P j x K V n B V F G F N N V B b N T F V V b V P P T F F f a P W ",
"F a l P N b P V L G V F N b V b j N N V b a b N V b B V f u f B V u a G n N T F T P L Q W P Q P V P P K b b L G W K K K b l G V ",
"L d j P V l F b F G A F N b V b f V B F V b V V b f f e 9 u l b G i a F n b K N F F F T K V P K B Y Y K n b K V f d b b O % n F ",
"^ b b Q T F T L V G F K b l V n d V F F G N A F B N N u 0 N F N T l f Y G V T K F K K W G B P L N P P G B N K N f f V V . % F W ",
"V i j Q Y n N b P Y P Y A b A N 1 a a u f 9 u u e e f 1 = a u 9 N e a P F j b f V F K P F n F V e x l r i e f u e e j i X 1 f j ",
"x a b Q P l d u b x f b j a l u ; a u ; r 1 e r 0 4 a 4 = r 9 e d u l T F r e 9 N b l V n l N f 4 d a 1 e 9 d u r i l 6 ; i a r ",
"Y K F W L B P Y K F B K K K Y B d K N 9 N f B V F l K j i V b K K F V Y A l V K V N x V F V G n d F V e b l K F F K Y f b K V K ",
"T P N N V F ) { P K V K P P W F b P F 9 B f V F K j V u 0 N l F P K N B n n T _ T G N K K G P F f K K e N l P P F N F f u G B K ",
"N V n V F K P F P G N F F V K n b T F 2 N a b N F f V 9 4 V a l N V b V A N G F K V x B N b V l u K K 9 n d F G P l N b 1 G n N ",
"j K A Q G f ) Q K ` K T G b Q V x P F 9 x N N N B l x F l V b f f F F A V f j d l A F F b x V x d K K i B V K T P V F F K F N V ",
"l ) P W K A { G V Y F ) Q A ) V l P V 4 l n N N V N b n u f f u n F V F B e $ . r x B F N B K N f L F u N N V F P V F V f N b n ",
"l Q P T G F _ b O # $ l F N ^ K V T G e N V A V G G V N e b N x f V V G N a e 1 u l N B b x V b i A F a K L T T T K K G r A F F ",
"j K G W G b P N F F n T Y V T F l K V e N F F A F G V x 4 n A b f N B B f u b b f b l x f a N l u B N u V F K F K A A F 4 K L A ",
"l K Y ) K n T Q Y Q P W P P _ L a G A u F L K K F K V x 0 N A j l l b B j i l a x x l l f l V n 9 b b e V G K G G F F F 4 P P V ",
"j P Q W V F ) ) P ) ^ Q Y P ) F l T P d F F V B F F V n u V F b f l n F l a V B x b x V b b V l 9 b b e B V V F V V A V u T T K ",
"l N V G B B L L F F F K L P W K l T K u b l x l b n x l 4 j b f d d x N 9 2 x b b l j b j d x u u F B 9 j a a d l n V l u V A N ",
"N u a V V f x V G b f b b b n x x W T a V F K P G G V N 4 a f d a 4 e f r u b r d i e i u u f u 9 V A a A F P W K P W n a l l b ",
"F j x Q K F A F P N N Q F W Q P i f f i d a V i j f a f 0 l N f l r u A l b l b V f f K j B N l 4 0 i i f a N d l V L F i B F V ",
"L d u V b N N B G a d Y K W T L l V P F F x B e u l N V e f N l b 9 > a e f l b l 6 e B l n b f e j V V V f N a N A K K f K P L ",
") n f T L T L K F u u K P Y K V r l G F F N L b V K T P d N V N V u 6 n l V N n N e e F V V b l 6 a N N N b T K ^ W ^ W N Q Q W ",
"` V N _ Q ) P G L b f F K L A x d B P G F N G l K F V b r F K N K a u V N A b l b r e b b b f i 0 x P P P V K l Y A K V l T Y T ",
"T x a F b b j f b j f a l N n u e f B N B l B r V b l i 9 L P F n 9 1 f r a u i f a d i f n N a 9 d N b N l N u V l V l u Q Q ^ ",
"Q V N _ P P F F V G K l F T ) K ; 9 e e a l K b K G P j 4 V V N B a a K N N n b f x b u N P T F 2 9 e 4 e f P V Q L ^ N e T K P ",
"N i f T K F n l b N N a V K P V l N V b n b T F K K Q l ; b f f u 4 9 V l l u e f j l e N K T G u b F V A B L l ) W { n 1 G N N ",
"` V B ) Y Y K F F V V l P K L A l K [ ) W V K f F A T l 6 T P P K f d K V V N b N b l u F G K V l K Q G V b K l K P { b 6 ) T W ",
"T b x Q Y Y K P Q ^ F A F K T F l F T T A F W V ^ A P Y K P K Q L r a F V N F A F F N b B Y T K l V L L b N Y N Q T T Q P K Q ` ",
"T f a F b b b N B V l l b N V b e d l b j N Y V _ T Q N j F K K A 9 e N x f l f b x f f f N B b e a f b j N Y V { ) [ V x Y T W ",
") n l P N b b N b b f N N l N b 1 9 9 e r f N d f b b 1 4 K ) T L i f F N l b j N b b b N B V V 1 9 0 r u f V f B N L 4 4 Q ` { ",
") V F { T L F K K A B P T G G V b K K Y P Y Q G F L G a i L ) L Y f b T K V F V B n n V V A F F n F F G G P ^ K P P T a u Y ) ) ",
"N u d T F B b b V b f V L V N f a F K P P K T K P P K V l f x a l 1 e b f a j a l i u f b b b l a V V F A V K F T T F F f a N l ",
"T b n _ P L F K K F n K T L K n j P Y P P G T ) Y P P _ Y N K K F a l K B b N x V N n B G P G V f L P P K V K P T W F ` T l Y P ",
"T b l T F A N B x N f b b b n a n T Y L K V P ) K Y P Q V x K K F i j A b f l d a f a u f x l i b W T T P V G Y K Y K T A f L Y ",
") N N _ Y L V B V L V N n b B l l P K K L A L ) T [ ) Y N N ) T P j N K n l n l b V V b b V B b l Y P P P V K Q Y Q ) K b V T ) ",
"K j B ` Q L _ L Q W K Y L F L N x G K P A n K Q ` Y ^ ) F V F K N e l Y V V K n K K F G P T P F V T Y P A N L P P P ^ Q F N F K ",
"T l B ` Q K T V W T L T P K P V l K P T L F T ` T A F N f N G F P i j G N N F n F V V F K K K A N K K K F B P P K V F n a f N G ",
"_ N V  .[ T ) P K K F L F B A x l K P P T G Q ` ) T Q N b Q ` Y W j b W P K P F F A A F F F F V N K K F K V P Y T K P N j B K Q ",
"A f n ` ) A V x G K A K V b B f 4 f j i l i l N n l V u 6 N N f b 0 l T L N x a B N N N N N b b e j d r j u f f f a b u 9 f f n ",
"x f V ` T l a e V B b N x l b d 1 a u 1 u 9 f l a e l 9 ; u r e j r f K N a e 9 j j f l x l f f 1 a e ; u 6 u u e 6 j e 1 d u a ",
"P L P ^ T V K K V B x B B B G b f K V e V n P T T N Q N a F F P K B B F N b N V l l j x N F B N u V N e F l V F F N T n j T K P ",
"T P A F V F Q ` T P F T W W ) K N W K e K B T Q Q V W b a P F P F V n x x V K L N x l N F K F V d K V e G b K P K N Y f a Y F L ",
"N F V G K G P V K A N K K K K b n W K 9 F x K L P l L a 9 K b b n n x l x V N x b f a f N V b f u V N 2 N i n V V j G u e G N V ",
"a N N b b b N x N N n V b f B N f P F 9 b N N K F n N F N G l l l N N N l b K A b B b V b b F l a V V e b l l x n f b V x B f b ",
"a N F F b a b V n b x N x b F B a K N 4 b n N A B b n b a n f f l V F K b x P P K b n G V b V x e N n 6 j f b b x f f l e l f l ",
"i b N F x 0 j V N N x l f l A b b P V e V V V F F V V x e N n N j B F F b b P P x % a V F j V N a G F e b b N A V V N l 0 b N V ",
"i j f b j 9 a j l n l d u a B l f K V 0 V F V F N V b a 4 b b b a l l N l l V N 2 X u l N f V n u B b 9 b b b b b B N f 4 b b N ",
"u j f b d r f a a l j d r f K B a F N 0 F K F K F V N i 4 n l f u f l N l d V N u @ b b x f V x 6 l j 4 N N b f u x n a 4 n n b ",
"e b N N f u l b d x l j a l K V f L V e V A V F V V b d e V N l u l N F j u V K F u F N l f F b r N l 9 n N l a u l N l 0 V V N ",
"e f l N f r f b l l d l f f N f f K V 4 l j d l l f f u 1 f f f i f l n d u N B V f f l f a N l e N b 4 j j d a a l b a 4 x l f ",
"e 9 4 j l e i f f u 9 d f d b a b W K u V B N F V N N a ; u r a a e 4 u a i f a f e 1 f f u j u r V B e n N V G B B N d 1 d a a ",
"i 9 u F l l j b b a x A F L T K u j u u j 9 f u f a f i = a f j a e e V n n l l b r d N n N V B 0 0 r 9 u e x r u f f l 4 a b a ",
"b 0 4 f e u a f x 9 e l N F Y L u b B N b 0 x i l f b d 1 f l f b e 2 d i f f x l 1 9 b N b N n 6 i N N N f x 9 f b x b 9 l N j ",
"N r 6 b f b x l N e e N K K A N a b F F N i G l V V A N e N N b V d e N B F B V F r e B G N b l 2 u b l b f F l F F F B a V K N ",
"B u e V b B b l x u e l B B j u 9 6 e u u e F i l j x f 4 N N b F f a K K P V V K f u x B b a u e f F V F l b e l b b f 9 V F N ",
"N e 4 f r a u u u r 4 1 0 f f u = % ; 1 > > x 2 f a a u 1 b N b N u 9 x f j a j f a e 9 u d u 9 4 u j f l f b 9 j f l i 1 V A N ",
"A f d K b N l x l V b f b F V b f V K G N f P x A N b i ; l b l V l f L F K V V V P A l B K A b ; 4 9 4 r d K l K V G f 1 V n b ",
"u 2 9 N j j u 9 u l f a l f 9 1 e N A N b r N u V B N a % f l d u 4 9 V V F l f x V b i l l u 9 r x A N V N F i G A P f ; b j f ",
"P b l P F K B N V F n b V N a a a F N b F x V a l n V f 4 B K F T n f L P T F V V G N b A N a i f N G n b l F f N N L l 4 K G K "
};
