/* XPM */
static char *_b8c0c4e052443ffcb5ddce745f5785aAE5ZEs8Ofh3A23wW[] = {
/* columns rows colors chars-per-pixel */
"64 64 145 2 ",
"   c #6F6F6F",
".  c #767676",
"X  c gray47",
"o  c #848484",
"O  c #8B8B8B",
"+  c #979797",
"@  c #999393",
"#  c #9C9897",
"$  c #979998",
"%  c #9D9C9C",
"&  c #A39E9B",
"*  c #A3A09E",
"=  c #9E9EA0",
"-  c #A4A3A3",
";  c #A9A5A3",
":  c #ADA9A6",
">  c #ACABAB",
",  c #B1A9A7",
"<  c #B3ADAC",
"1  c #B5B0AD",
"2  c #B4B4B3",
"3  c #BAB4B4",
"4  c #BCB9B6",
"5  c #B7B7B9",
"6  c #BCBBBC",
"7  c #C0B8B6",
"8  c #C3BDBC",
"9  c #C4C1BE",
"0  c #BEBEC1",
"q  c #C3BFC0",
"w  c #C4C4C4",
"e  c #CAC5C4",
"r  c #CBC9C6",
"t  c #C5C6CA",
"y  c #CAC7C8",
"u  c #C7C8CB",
"i  c #CCCCCC",
"p  c #D2CDCC",
"a  c #D4D1CE",
"s  c #CDCDD1",
"d  c #D1CFD1",
"f  c #CFD1D2",
"g  c #D4D3D3",
"h  c #D9D5D4",
"j  c #D6D8D7",
"k  c #DBD9D7",
"l  c #D5D6D9",
"z  c #D9D7D9",
"x  c #D7D8DB",
"c  c #DCDBDB",
"v  c #E1DEDD",
"b  c #DCE0DF",
"n  c #E2E0DF",
"m  c #DEDEE1",
"M  c #E1DFE1",
"N  c #DFE1E1",
"B  c #E4E3E3",
"V  c #E8E7E5",
"C  c #EAE6E5",
"Z  c #E8E6E5",
"A  c #E6E8E7",
"S  c #E7E8E5",
"D  c #E8E8E6",
"F  c #E9E9E7",
"G  c #EAE9E7",
"H  c #EAE9E6",
"J  c #E5E4E9",
"K  c #E6E5E9",
"L  c #E8E6E9",
"P  c #E9E7EC",
"I  c #E9E7E9",
"U  c #E7E9E9",
"Y  c gray91",
"T  c #E9E9E9",
"R  c #EAE8E9",
"E  c #EBEBE9",
"W  c #E8E9EB",
"Q  c #EBE9EA",
"!  c #E9EBEA",
"~  c #EAEAEA",
"^  c gray92",
"/  c #ECEBE9",
"(  c #ECEAEB",
")  c #EAECEB",
"_  c #EDEDEB",
"`  c #EEEDEB",
"'  c #EBEBED",
"]  c #EDEBEC",
"[  c #ECEAED",
"{  c #ECECEC",
"}  c gray93",
"|  c #ECEEED",
" . c #EEEEEC",
".. c #EFEEEC",
"X. c #EFEFED",
"o. c #ECECEE",
"O. c #ECEDEF",
"+. c #EDEDEF",
"@. c #EFEDEE",
"#. c #EDEFEE",
"$. c #EEEEEE",
"%. c #EFEFEF",
"&. c #EBEBEB",
"*. c #F0EEEF",
"=. c #F3EFEE",
"-. c #F0EEEE",
";. c #EEF0ED",
":. c #F1F0EE",
">. c #F1F1EF",
",. c #F1F0EE",
"<. c #EDEEF0",
"1. c #EEEEF0",
"2. c #F1EFF0",
"3. c #F1EFF2",
"4. c #F1EFF0",
"5. c gray94",
"6. c #F1F1F1",
"7. c #F2F0F1",
"8. c #F3F3F1",
"9. c #F1F1F3",
"0. c #F2F0F3",
"q. c gray95",
"w. c #F3F3F3",
"e. c #F4F3F1",
"r. c #F4F2F3",
"t. c #F5F4F2",
"y. c #F5F3F4",
"u. c #F4F4F4",
"i. c gray96",
"p. c #F6F4F5",
"a. c #F7F5F6",
"s. c #F6F6F6",
"d. c #F3F2F3",
"f. c #F8F4F3",
"g. c #F8F3F7",
"h. c #F8F7F5",
"j. c #F8F6F7",
"k. c #F6F8F7",
"l. c #FAF9F7",
"z. c #F7F5F8",
"x. c #FAF7F8",
"c. c #F9F9F9",
"v. c #FAF8FB",
"b. c gray98",
"n. c #F9F8F9",
/* pixels */
"{ Y Y { Y S ) { { 6.5.6.;.{ { o.J | Y Y B { { { | { { { ) { { { Y { :.5.Y o.Y Y ` o.{ =.Y Y K Y { { B B { { E 1.6.Y Y 1.{ Y ;.{ ",
"{ B B c g c c c B B B B B c c m J Y ) Y B ` { { Y Y Y o.Y o.5.5.E { { 6.` Y E Y Y Y { 6.{ Y Y | Y | Y Y Y E Y { 5.Y Y { | { 5.{ ",
"Y B f w 6 w 0 6 i i u y i f 2 w W B B K g i i i s i g g g B B o.` { 1.{ { H c B c Y E Y ] S B Y 6.8.6.1.;.;.;.:.6.j.s.e.0.k.k.o.",
"{ b g i b S E ) { { Y b Y N w s Y Z > w j 0 g j r t u g g c c o.Y { { { H b t c u B c g { B j B g 6 u s r 6 4 4 u d n n.t.s.;.` ",
"{ B u g { s.k.b.c.k.| B N g t f K S i g i 2 c B i i j k n B B Y Y Y =.E Y N u B g H B c 1.B B { t < y f w * @ 1 r p M f.r.j.2.] ",
"1.c i j { 6.8.t.6.| B N B g w i N B B S w 6 c B s g g j k b v Y B B B n c g 5 i 5 c s i B B m { s 0 g x f > , 9 v Z B z.e.z.{ { ",
"{ B g i y u y 0 6 6 > < 5 5 > w m B N B i u Y Y a a j j k n c ] e 8 9 9 7 3 1 9 e p e i c c Y 6.a 0 g g u * * 9 c C n e.0.=.{ E ",
"{ B c g i i s i i i % % * = O 0 N B B N i i K J s f k c k k c E p p k a p p k n v h - c S B | 6.f 9 s a i > : 9 v C B j.r.s.{ C ",
"Y M c c g d d d j j - - > - - w B B B N c c x x c B Y E C { E 2.r a H a r a v n k k a n B B | 6.p 6 i g g y 7 3 e i p -.-.=.` C ",
"o.m c m g g p p g p & & : < & t S B B B B j m l x M ` { -.{ ] 0.p p v h r h v n v n V V B B Y 5.i 5 u s i y 7 7 : , 4 B v C Y Y ",
"Y B c c c h p e y e * , 1 , & 9 / n B Z m m B m m B ) -.E -.Y { p r p p h v v B v n n n c c B 1.f 6 i d g i e 8 8 8 e c a a g Y ",
"B B h c M B p e e w , 3 3 1 * e V s u u i c 0 5 5 5 e e 7 w { =.h p h k v v v v c c n n c c c { s t g g g s y r p e 9 h 8 * g H ",
"o.B c c v v p p p p , 7 1 1 * e B g c g a k 6 6 5 w i p 9 e :.=.v h c n n V C B n c c k a y B ;.i 0 s j g i d p h p e v v v n R ",
"Y B c c h a p y r 9 9 9 8 7 4 9 L g f i g c i t u i h h e i E -.k h v Z n ` 6.=./ V -.g f i B ;.i 9 a g g d d v v h p v h k v C ",
"Y m c c v p p r 9 p a a 9 9 1 8 B a i i i N i t w g j h p i { H k c n n a V :.] H H ` i w g S { y 6 i g h z p v v a h y , e p L ",
") N c N v a p p 9 p a p 9 7 1 9 Z B b c b c u i g g h z p p Y Z v k v B e V :.E C B E i i b Y 6.b f c c z C v h v h g e 3 p h R ",
"Y B c c x h p i r p p p 8 8 3 q C h f s g j i g g c c h g p E C =.h p E B 2.2.=.E E { B B Y Y c.;.S B N g j h v v h h p e v v C ",
") c c c j g p i p p a a r 8 3 e v p g g a c w 0 j c c c k h ` =.` k p B B C L B v B B M B | { s.H c N c d d h z c h e v C E E ] ",
"{ B j c h h h p p a a 7 7 , & 8 c y u y i j 5 2 s c c c c c B Y ] h u C B B c B h d j m B | o.6.J x N j u i h v v v w p e a c Y ",
"Y B c c c h h h h a h 7 1 , & 7 v g c c c j 5 6 g B c c c j Y Y Y c p Y M B M B m l m N K K K 9.m s m s 0 e a h c k v p e g v Y ",
"Y B c c c c h a h v C v v v v v Y Y | o.) b a g m 6.B c c c Y K c g f B B N c j s t t 5 u K Y 1.m l x m l t a h h c k h h v n -.",
"| B c c B B h e v r 8 v < C -.E ` 6.Y | S c B N B B j c g j K B j 5 i Y B B N c u w 5 o - H W k.J x c B J y a k k k v Z Z E -.-.",
"K B z g g y 7 : r r 8 a 4 v h i c H B j B g f g j j g g j c m B B 6 g Y N c c g w u 0 = 2 B B 8.B c N S B p h h k v g n Z E ` ` ",
"B B c g i y e 8 8 r p h k p e 3 h N c c c c g g g i g g g f c N B c z Y B B c d 0 5 > % 5 j N s.J c n S B w r a h a h C C E -.{ ",
"| B c g g i w 8 e r y a h k h a k c B c g B c g B w i g s s g m c f i c j g u 6 1 > % - < w f { B j c B c 6 9 9 r r p v v C Y L ",
"Y N c j g g n n C v C a h h h p g c c j u B 6 > c j j f l x m N m m Y | B B g 0 5 2 ; 0 u i g :.S x B Y C k k c v v v C C Y Y { ",
"B N m c f B n.j.f.f.f.h c v h a g c b g i N c j b c j t t x N B B K 6.| B B c t u t 6 u s a j :.;.K ;.0.| c c c v v C B H { ` { ",
"B c B B c C j.6.r.=.-.z k v k h g c c j i B B c v c s i s m N K K B Y B B B c g c B c j j j g { s.k.{ Y 0.c n c n n M B K B o.{ ",
"Y N ! | u c E C B v B h B v c c c c c j g B Y B B M v c b n | | { B H V n n c j B B M n n k z -.6.s.w - ` s S ) o.J N J B J L 1.",
"B c x i 5 c S v z h v v n Z k c c c b c j S K B K B c j k n B | ;.B ` V B n b Z E E C H Z B h E s.s.Y Z :.6 B Y Y B J Y <.o.1.{ ",
"B c f < 2 c H v c h h h n H Z E Z c Z B c B Y B B B n b b n B c c c n n v n v Z C C E Z C C v v n c k g u t B | Y B Y Y B B Y { ",
"Y N s 1 2 k Z v h h v h Z / H e.Z b B B B B Y Y Y B B B n S Z ; > u v v p v n n R R E C B C Z n v c p w w 0 B Y Y Y B B u f c 6.",
"b g y - > g Z b k g c g n Y L 6.S c c c c Y Y Y S w 0 6 2 > 5 6 t k S B n v n E =.=.-.R ( C Z C B M v p y y b E F S S Y i g c { ",
"B c f > 2 k E B c j c c c ] { s.) 5 w 6 i o.{ | B 2 5 > $ O $ < 6 i j j h h h k v n C R -.R R R Z v h y 0 0 i f c b 6.Y i g c | ",
"B b c 6 w c Y B b c N c c { { k.B c c g B k.{ S c > > O .   . o = % 6 9 8 6 7 8 e p h -.-.-.-.C p q , 5 5 > i i s a Y { s g j | ",
"B B b u i B 5.Y B Z Y c B Y B S i w u g Y { B N x 2 6 i u i g g c c j w e 8 9 w p p h E R M -.Z h 7 * ; w w g k j j n ) c c B 6.",
"Y B B b c S { B b B B B b ;.V S u u a g f B B c c < 2 j j c B B Y Y C 8 w e e e p r h H V E -.E h 8 ; , e y j k g a N { o.| Y 6.",
"Y B B B B B 5.o.Y E B j b b g w % 0 u u w u i i s 5 5 i i f j j g g j p r < w p p p k C V / ` E c q 3 7 i t k b c g B ` { { :.1.",
"Y B B v m B { { Y ] o.c n g u 9 w g g j l g f s f i s 0 5 2 6 0 6 5 t a p 3 9 p p a h / V E -.H h v p v c c B c j j m Y | { { 1.",
"B B B N c B Y Y Y { 6.B n g i r y a g s g f s i u u u w 6 6 w i y u i e e r e y a p k n Z V E n h a e y k B B y g n B Y Y { { :.",
"K B B c c c o.Y ) { 6.N c g y u i g j j l f f s u u u t 0 t u i t r g y e r p p a h v v M B Z n h y e w g c B v b v B B J K | o.",
"Y S m c j c { Y { { 6.B c i y y y j g j f x f u s t u t 0 t u i w i g r r p h v a h v C ] ] E Z h p g g g c m B n n m m J J P K ",
"Y B c j i j o.B ) ` ) c j f t * > 5 2 u f 0 5 > 0 u < = $ 0 u i i i k g p h h v h c v =.3.e.f.E h v { { 5.5.6.1.;.{ B m J J Y B ",
"| B c c w f c c c b S s c g u - 5 y 2 s N t 0 0 i b 0 2 = 5 i s i g k h h h v h v v n ` 3.2.f.R h C k.6.5.5.6.6.{ { B m J J J J ",
"| A N m w g c c b b S j c g j > 6 ; > j J t t 9 g c y w > 0 s s s j z k h c k h c v c =.2.6.f.E C -.f.=.6.5.o.{ | o.N B N N S S ",
"B N x x 0 5 w 0 9 9 y w c c g 2 5 0 0 g J f u i g c i f w w i i i g c g h c c c v n k -.r.r.j.Z v E n.6.6.1.{ ;.{ Y B Y Y J J o.",
"| B N m i w 9 w y e i u c x j c N B S Y Y Y Z B ) Y S B j a g g a c ) H B v v g p h c n n n E B h v n v i > 2 5 c c B Y Y B Y ) ",
"K J N N i r w e y i a i g j g i j b N B B c N c ) Y S B j g g c j S n.s.v.=.C p 7 v v k c v v Z v C M B i $ $ - m B B B S Y B S ",
") B Y B g i u e p a v e e e 8 3 7 n C n n n c v E E Z Z c j g h a n z.t.z.] C i 8 k b c v v n n v B B M g 6 6 6 b B S B Y Y B Y ",
"Y K K J j i t e p a h e e e i e 9 n n n n n v h E H B Z N c c c a B k.s.n.o.M u 5 k B c c v v n c B M v j i i u c Z H Z Y ) | Y ",
"| J K N g g i e e h p 8 p h h v h v n v n C H E o.| S Y B c c j i B k.s.c.B N i i c B c v B v v c B B B g & & , v B E H -.E Y E ",
"<.J J J s i p 9 8 y p p h p h p h v n v v C V ` B B Y B B z j j u B s.s.n.B c c B B v M B v v v k C C v k 4 4 9 n n E -.` E Y E ",
"<.K L K B m j 8 8 9 c v M v v a v n n v n Y Y E ] { Y B B c c c g b t.5.k.B B j c B N c v v v v h c v v p 8 e 8 v C / E ` ` E -.",
"1.m c j s c g 3 8 e h v v h v a k n n v v C Z :.{ { { Y B B B B c B 8.6.k.Y B c c B c c h v v v c n C M a 4 ; 6 v Z C -.E / E E ",
"| c s u 2 s c r p h n C V E Z c n V n v v n B H B B B c j c c c g g B B C B B j c B B c v v h v / B v B h 8 8 h v n E E -.-.C E ",
"o.g g j 6 i c g a v E >.e.f.>.B V ` n v v V ` c y c g s g j u 5 6 9 t w w g B c m N B c h h h v f.e.e.e.f.f.s.j.f.f.e.e.f.>.Z C ",
") i s i 5 u h g h v Y 2.e.0.s.C b B c h k Z H c a c B B B c i 6 w u a i 9 s E j j c c z h h h h L r.f.j.j.z.r.f.e.=.r.r.j.=.B B ",
"Y c c j u j c j h v ] s.r.s.j.` S n n v c v H c g n N B B B g u t i g j j s E c c c c z h g c h E =.E E =.z.r.3.2.=.3.3.r.2.B B ",
"Y Y S N v c a y y e g B N Y B c c j c H c B Y B c B B Y S B N j a j k c c j ) H B B B v M v C B :.-.h z B x.e.2.{ ] ] r.e.-.B n ",
"Y g i i w k i 6 q 5 g g g c c u i w c o.n Y ;.B c B B Y K B B m x c c c c g Y B g g j h h h h -.2.=.B n C j.3.2.=.-.2.3.e.=.v Z ",
"Y j u 2 s c g 6 t i g c c B B g c i N ) K ) 5.B N B B H o.B B S B N c c n j Y B c B M n v B B ] 6.e.C L { f.3.2.{ { =.6.3.{ M B ",
"B g w 2 i B j u a f g u j c c c j i N 1.H 1.{ B b B B Y B Y B Y B B B B n c { B Y Y | Y -.=.{ { 2.z.n.s.r.6.3.6.6.2.1.6.e.=.v B ",
"{ B c B B B c s g g g s c c j j g w c 6.Y ) { B B Y B Y B B B Y S K B n Z c Y Y B ) Y Y C Y Y Y | { =.] o.o.Y Y ] Y Y { Y B B E ",
"Y Y Y B Y S j s g g j j c c j h c i B { Y Y Y Y B K B B B B Y S B B n c B k Y B B B Y C L Y C L B o.B N Y E K o.| B B E L B B L "
};
