/* XPM */
static char *e3565c06c9134fe6f312e23d1dabe50fcQDih1Fahqd4gFzd[] = {
/* columns rows colors chars-per-pixel */
"64 64 177 2 ",
"   c #010103",
".  c #0A0502",
"X  c #01020A",
"o  c #06090E",
"O  c #0B0B0D",
"+  c #100C0C",
"@  c #0E100D",
"#  c #010510",
"$  c #040C13",
"%  c #0B0E13",
"&  c #080F19",
"*  c #071017",
"=  c #0E1215",
"-  c #0C131A",
";  c #121315",
":  c #161817",
">  c #14161A",
",  c #18161A",
"<  c #16191D",
"1  c #191A1D",
"2  c #1E201F",
"3  c #0F1620",
"4  c #171721",
"5  c #161C22",
"6  c #1B1E22",
"7  c #1C1F28",
"8  c #201F24",
"9  c #172025",
"0  c #1D2125",
"q  c #1D232A",
"w  c #1E2831",
"e  c #212326",
"r  c #262827",
"t  c #282826",
"y  c #23252A",
"u  c #28272C",
"i  c #26292D",
"p  c #292B2E",
"a  c #252C33",
"s  c #2B2E32",
"d  c #272E38",
"f  c #2B2F38",
"g  c #302F34",
"h  c #2E3135",
"j  c #27313A",
"k  c #2D343A",
"l  c #2E383E",
"z  c #313336",
"x  c #323639",
"c  c #38373D",
"v  c #35393D",
"b  c #393B3E",
"n  c #3D403F",
"m  c #2E3740",
"M  c #2F3942",
"N  c #333740",
"B  c #343C43",
"V  c #3B3E42",
"C  c #363F49",
"Z  c #383F49",
"A  c #403F44",
"S  c #374047",
"D  c #3D4144",
"F  c #374149",
"G  c #3B444B",
"H  c #3E484F",
"J  c #3D4750",
"K  c #3E4A51",
"L  c #424345",
"P  c #464847",
"I  c #444649",
"U  c #46494C",
"Y  c #494B4E",
"T  c #424C54",
"R  c #4C4E52",
"E  c #454F58",
"W  c #484F59",
"Q  c #465157",
"!  c #4D5255",
"~  c #46515A",
"^  c #4A535A",
"/  c #485159",
"(  c #4B5459",
")  c #4B545B",
"_  c #4E5659",
"`  c #48525C",
"'  c #4A555D",
"]  c #4E595F",
"[  c #505457",
"{  c #525355",
"}  c #565857",
"|  c #505358",
" . c #525358",
".. c #505558",
"X. c #515459",
"o. c #515559",
"O. c #525659",
"+. c #52555A",
"@. c #53565B",
"#. c #52575B",
"$. c #55565A",
"%. c #52555C",
"&. c #51565C",
"*. c #53565D",
"=. c #54575C",
"-. c #54575E",
";. c #545659",
":. c #53585B",
">. c #53585C",
",. c #51585E",
"<. c #55595D",
"1. c #54595F",
"2. c #56595E",
"3. c #555A5E",
"4. c #565B5F",
"5. c #575B5F",
"6. c #54595D",
"7. c #58595E",
"8. c #595B5C",
"9. c #4D5760",
"0. c #4E5961",
"q. c #565B61",
"w. c #575C60",
"e. c #565E61",
"r. c #565D63",
"t. c #545C63",
"y. c #585B60",
"u. c #585D61",
"i. c #5A5E61",
"p. c #595C63",
"a. c #5A5D62",
"s. c #595E62",
"d. c #5A5F63",
"f. c #585F65",
"g. c #585F67",
"h. c #5B5E62",
"j. c #555F68",
"k. c #576067",
"l. c #5D6065",
"z. c #5E6166",
"x. c #5F6367",
"c. c #5C6265",
"v. c #57616A",
"b. c #5B626A",
"n. c #5D6268",
"m. c #5F646A",
"M. c #5B646D",
"N. c #5F666E",
"B. c #5C646B",
"V. c #5E686F",
"C. c #606165",
"Z. c #606467",
"A. c #626665",
"S. c #606368",
"D. c #636469",
"F. c #626669",
"G. c #62656A",
"H. c #63676B",
"J. c #64656A",
"K. c #65666B",
"L. c #64676C",
"P. c #61676D",
"I. c #63686C",
"U. c #65686D",
"Y. c #67686D",
"T. c #66696E",
"R. c #62696D",
"E. c #6B6D6F",
"W. c #636A70",
"Q. c #656A71",
"!. c #6B6E73",
"~. c #6E7176",
"^. c #6C7177",
"/. c #6D737B",
"(. c #727375",
"). c #757578",
"_. c #7A7B7D",
/* pixels */
"l k v l B B B S B / J ) k.( G y 4 5 5 6 < 5 6 0 0 6 9 0 6 0 5 6 0 5 5 6 9 5 9 1 1 5 5 5 9 4 6 < a U T r.( H B B S B B B B k S G ",
"B B B B B S G S G H G ~ [ Q S , P U U Y Y R Y Y U R R T R ! ! R ! / ! ! R R Y Y ! Y R Y Y Y U I B T E _ ~ K G G F G G S B B B v ",
"B B C B G S G G G J I T G W S p 2.z.G.h.n.G.G.G.I.I.E.J.I.J.A.G.G.G.J.G.R.I.I.I.G.G.G.z.n.l.z.u.Q ~ T U U K F J G S S S S B B B ",
"M B B F F F S G G G G ~ T / B e U @.! @.@.[ _ 2.8.4.,.Y u h s h h h p L R.>.>.:.&.:.@. ._ ! ! R G T T Q Q K H H G G G B B S M B ",
"B B B B S S F G G H G ( n.` G y U >.&.=.y.2.u.u.r.4.C. .R ( @.! ! @.R r.(.2.u.k.r.4.4.8.:.:.:.R :./ H k.c.H H D D F F S B B B B ",
"B B B Z S S G G G G H H G U Q G h Y ! ! ! !  .@.@.@. ._ @.$.:.@.>.$.&.8.=.@.[ @.[ _ [ ! ! ! I r.M.G t.Q G J G H F G F S S B B B ",
"M M B M B B F G G G G H T K J Q G , y u u u p u r i s s u p p p p s p p p p u p i p p i p , D V.G f.W.J H G H G G F F S B M l l ",
"= = ; = > ; ; - : ; < - q U T J / Z e v v V v B V b V V D b D n V V V V D V V b b b b V z V V.K >.^.G 4 - < ; - > > ; - ; ; = = ",
"e 8 p y e e r r q r r i : q Q U K ) v y B b b v v v v n n b b S V B b V V V v v B x V x b M.' ( !.T 5 = u u r r q r e r e u y e ",
"y e z u s s f h z h l z h ; j Q T T ` k s P I P Y Y Y U U Y Y Y Y Y U U Y P I U I U Y b k.k.Q /.( q + h z z k h h h h r u h y 0 ",
"P U Y ! A u u u h z j z z z @ v / T Q ~ b A.E.!.(.~.~.(./.).(.~.(.).).(.(._.).E.(.(.E.!.v.K ^.t.a . s z z x h h s i i L L L D D ",
"g z x z s b U Y D s z z z x a @ G / J Q T q u u i h h s s h s b R Y Y Y R 8.z z x e W M.H !.b.l O i h x z h s b v h [ [ L P L P ",
"y r g i u x D D b h k h z k z u ; U ~ T ' Q / 4.k.,.t.k.r.r.r.f.d.d.f.t.r.&.0.t.q.f.W.E W.M.S @ e z x z x h @.{ I Y R r e s y 6 ",
"p u z s s i i i p z x z x x x v y 9 ~ E K ` ,.j.0.k.k.t.v.v.j.v.j.j.j.j.j.j.j.t.j.t.E P.Q.G 1 1 z x x x p P [ r a u e s u z s i ",
"p i h u p h s h h h z p s h h h h : q Q ~ Q ` ~ ` ` ~ ` 9.9.9.` 9.` ` 9.` 9.) ) ~ E q.!.K q ; z v x x x h x f s g s s s u z i r ",
"r i x u p h p p h h D L L L I L L L p T ) ` ) ) ] ` ] 0.0.0.0.9.0.t.t.0.0.9.` 9.) E 9.) B + s z x x z h h c x z s p s s u z u u ",
"y i x i s s s s h h Y Y ! Y ! R { Y I ` ~ ) t.) 0.0.0.] ] ] ] 9.0.9.' ' ` ] ` ] ) ) ] 0.x u { 2.$.$.@.[ $.R z z s s a i p h p r ",
"r i h s s u i s h h z i a s p z h p V / E r.m.m.V.V.V.v.] ] 0.] 9.] 0.v.^.I.V.V.M.B.c.) M r b V V v x x x b x s s p h i i z i y ",
"y u s i i p s a h s x z z x x x x z D ` ~ / ~ E ~ ' ' ] ] V.^.V.V.V././.k.~ ' ` ~ ~ ] ` x e x x h x z h h x h s g p s s i i p r ",
"u y u i u s u h i z I s z h x k x h G t.~ ) ~ ` ~ ' ' ' ] ' 0.] 0.t.0.' ` ` ] ~ ) Q Q ) B e x x x z z z h x z s s u p y z Y y i ",
"y u i u s i s h u 2.P i h x x x x s U ) T r.~ ~ ` ~ ' ` ' ' ` ] ] 9.9.9.` 9.' ~ ~ ~ ~ ~ J > z x x x h h h h s s s s u s 8.I 0 u ",
"q y r s h r p y V R y h h h h k x h ~ E / t.Q ~ ~ ' ' 9.9.9.9.9.] ' ' ] ] ` ` ~ ) ) E ~ T < s x x l h z h h s s s u p x v > r e ",
"y y y u h i i p x h h h h h z x z x ) T ) ) T ~ ` ' ' ' ` ' ` 9.' 9.' 9.` ` ` ~ ~ ~ E T E i e x x z z h h h h z p p u s s i y r ",
"e y r u h i p i s h r p h h h x h V ` J t.~ Q ~ ` ' ' ' 9.9.] ] 9.0.' 9.9.9.` ) ~ / E T ~ k , v h h h x s s h x i s r f s e y y ",
"e y r u g r u z L A V c p h h h p G Q T t.K J H H H U K T T T T K K H T H H H H J H T K ~ C ; k x h k i u g s x i i y h s e y e ",
"e e q s f i y b U Y L V z s z x s T T T t.S               ; ; > ; : ; ; = ; O   ;   B T K J > s x h i P 8.Y Y R x i r s s e r y ",
"e q y r p r p g s u e s x h h h z E J / ] j t R ! R ! Y L h h h k z h h z z z ..b y B E J T 0 r h h s Y v i z x z i y s s y q e ",
"e r < x b e e z x f s s x h s h z ~ J ) ~ y u I P P ..R V L ! [ ! 8.! n b x l.8.x x x T J T a 1 h h h h r p s z h p i s i e e e ",
"e 4 g 8.z 1 z b s u p i x z h p V E G &.J > r k h x S v z D G L L Y I B v b D h b z a J H K k > h h h z s i s V s y y p e e e e ",
"1 r 8.A u h 8.{ 0 u p u x h s i G K H ) B = h x z V b v b v v x b S x v n v S x x x i G G H S ; h h h x s 0 8.V 0 L p 8 7 6 7 e ",
"u 8.Y n U I U u y s a u z h h y T G T ( d ; z x x b b x v x b b b D v v D b n h x x i B J J G < i h r x e R R 4 y n P P P U g 1 ",
"h z o 6 1 8 < r r r s s i p h h T F E E 0 2 z x k b b x x v v v b D v v n x D z x x p k H G H q 6 6 P ! 0 D y r r p g p g p y e ",
"e e e e e r u u u y h s a s Y I K F Q G ; r x h z v n x x x x v v D v v b v n h k x h s G F G a 0 Y 8.s u z r y y y 0 0 0 6 e u ",
"t y 8 e e q e e y r s a u s y B G S ] l = s h x h v l x x v x v v B x x v x h h s s i y F F F k < b s r a z y u y y y e e 0 e p ",
"u r 6 8 e y e e y q s u y p y B K I.] w ; h h h h v x z x v x x x b k x z U ! D D I L x B F G B = 6 i s i z y e y y e e e 7 e u ",
"6 8 7 8 8 q e e y e i s r i i F >.T M y : x z h h v v h z z h x x V x z b Y.{ @.I P Y b k F F S 1 0 i y s z q u e e 0 e e 8 e r ",
"b p 1 e r e r r y 1 Y h y u s J T M C > 0 l x h s v z h x h x z z v h h Y P r x i i u y a F B C y > s r u s e r e e y e e 1 2 p ",
"b u < , , , 1 6 $ U R 9 i e j U I B l % r h h h s x x z h z k z l b z z x h h h h h h s y C B B a ; r i y e e e 0 2 1 , > 1 R U ",
"; > h L n n L b P [ < e i e N I S B d + r h h s q n n a z h z h h v h h v h h h a p h i q l C M k = e i y y e s z z g z p { b O ",
"6 1 e p p z z g x e q r e y B G B B q > s k z i n e.z s h h h h h v h h x h s h h h p h e k C k v > 6 r y q r V L n L A A b ; 1 ",
"1 1 1 1 > r e 1 1 0 y e y y S l k B ; 6 p f z r U L r h f z z h h x h s x h s s s i i p e a l U @.& 1 r y e e 6 , 1 e ; ; ; 6 1 ",
"1 1 1 8 6 u e 7 e e e q 0 p C l B l ; t r s s u k r s a p e p z h x z h x z h h s h h h r i l ( Z 7 ; r e e e e e r p 8 8 8 4 1 ",
"1 6 1 1 1 p e 8 6 e e y 0 k v j T a 1 z z c x D Y x x v x Y 8.U { ..U R R R Y Y U Y P Y D s k k k a O e e e 6 e e 8 e 6 6 1 6 1 ",
"1 1 1 6 1 e 6 8 8 e e y 2 x l l U < p L L L I L Y P I I P ! z e b n i i h u 0 e q q y r y h j l l h = 6 e e 0 e < 6 z 1 8 6 1 , ",
"1 , 1 1 8 1 e e e 8 0 e 0 B h b G o p u e e p e h y y i u 6 i h i h h s i s b L V b s u u z a k j k < < e 6 e 6 e 8.b ; 1 1 1 1 ",
", 1 1 1 , 1 8 r 1 e 0 1 i M a G v   z p 7 b b e z u p p i s s i h z i p h i n L b L f r u z q k j k 5 ; e e 8 > z b o 8 1 1 , 1 ",
"1 1 1 1 1 1 0 u 1 2 0 6 a l a G a   c r s } z e h p i i i i a u u h p r q q < < 1 < 6 r e z 0 j h k i % e 8 e e e , 1 1 1 , , 1 ",
"% ; ; ; > ; , e > : , > a h d D 5 O v r s i 0 u h i i i i i u i p i z b L L D D L b b n b b 6 s d j i X ; , : ; e 1 ; > > ; ; ; ",
"i i i s s s s h f s h k Z a k S % ; c p r u r y f u r r u u i i i y u v b b b b b b b n x x 1 a a s a q z x x z x k k k f s s s ",
"s s h h f k k l x x B M k y B v   < c u u s q y s u e u r i y i i i y 0 8 8 e e 0 6 ; y y b 1 e d a a s m k f k f f f s s s s a ",
"< 5 4 5 5 0 0 q q q q q w i Z s   6 c e r i e y s u u e y y r 7 e y y 0 e e e e e ; L Y 1 c 1 0 a a a w q y w q q 6 7 6 5 5 4 5 ",
"5 4 q q 7 0 q q 9 q w q y 6 Z 6 + 1 c u u u 0 e s e u e r y < P Y I P D L L b L L I 8.p 2 b 0 1 a a w i w y w q y q q q q 0 0 5 ",
"0 q 5 9 9 0 6 q h s h h d v D X , 1 z e r u 8 1 s r e e u 4 U { q i p p x A L b u z e < e x 8 1 i a a a i a a y q q 0 q 6 5 & 5 ",
"B i < < 5 - 7 ! I I I G I W b   1 6 x t u r e g f e y e e e b 6 0 e e r D L I L > 9 e 0 e z 8 , 0 h R P R I I I u 5 6 4 3 4 P U ",
"< 4 y z k h ! V X B / V 8.k - = 6 1 z e e e s A c 8 e 8 e e u e e e e e u u r r e e 0 6 e z 0 1 5 i 9 S R V ( s 5 q a s i @.D > ",
"4 < q B b V B - e a h h h a 1 O 6 1 z u e s e z V 8 r r e u f e y y y e e e 8 e e e e e r z 1 1 6 w q k b v V s 5 h D L I Z X 5 ",
"< 1 < - - & - q 7 6 4 9 5 q 6 o 1 6 s X o % X u z   X     X <     X X X X   X             p 2 , 6 a q 5 5 5 3 5 0 5 5 - * $ 5 < ",
"< < 4 - 5 6 6 - 6 q q q q w 1 O 6 ; L { { [ { { } { { { { { { { { { { { { { { { { [ [ { { Y ; 1 7 a q q q q q 5 5 < 5 6 < < 4 < ",
"< < & c x * q D 6 5 q q q q 1 o 1 > b P L P P P P U P Y U P P U U Y U I U U U P P I P P U c : , 6 q q q q 0 5 0 6 a 0 < y r - < ",
"< < = z i - q z 5 7 7 7 0 q < O , , O                   X   X         X                   O 1 , 6 y q q 0 5 0 5 q L 0 $ v b * < ",
"< < 5 X & 6 ; # 9 = = = 1 a < o ; @ ; > , , > > , > > : > : : : , : , , , : : : : > : : > ; : p 6 q > = ; ; a 6 5 X < 1 $ X 4 , ",
"; 4 $ v v $ q U 1 > < > 6 h > O ; > > > > : : , 1 < , : 1 1 , 1 1 1 , 1 1 < < < > < , , : > 1 p 4 q < 6 < < h 6 < x 0 = a s = < ",
"< > ; i 0 > 9 i < 5 6 6 9 e > O : , 1 1 , , 1 1 1 1 1 1 1 1 1 1 1 2 1 1 , 8 , 1 1 < < < < , , , 6 q 5 0 5 9 q < 0 V 6 $ z z $ < ",
"- - < - ; < < - 1 5 1 9 1 9 > o > : < 1 1 , 1 , 6 1 1 1 6 1 1 1 1 1 6 1 1 1 1 1 1 1 1 1 1 < < ; 5 0 6 5 6 5 < 4 < $ < 1 & $ > > "
};
