/* XPM */
static char *_453765284c844a0ed25763a2b4d6ad35FOZZPz4qFxYwHY1[] = {
/* columns rows colors chars-per-pixel */
"64 62 18 1 ",
"  c #3F3F3F",
". c gray26",
"X c #464646",
"o c gray29",
"O c #4E4E4E",
"+ c #505050",
"@ c gray34",
"# c #5A5A5A",
"$ c #5D5D5D",
"% c gray39",
"& c gray40",
"* c gray42",
"= c #6F6F6F",
"- c gray45",
"; c gray46",
": c gray48",
"> c gray49",
", c #808080",
/* pixels */
"oooXXoXXoXXXoXXoXXoXXooXoooXXXoXXooXooXoXoXXoXXoXoooXoXXXooXooXo",
"ooOOOOOOOOOOOOOOOOOOOOoOooo+OOOOOOoOOooOOoOOOOOoOoooOOOOOOoOOooO",
"oO=;&%%&&%%%%%%&%%&%%%&&$X@--%%&%%&%%%&&&&&&&%&%&$.$;-%&%%&%%%&&",
"X+;>********************&X@>:***********&********$.%>;**********",
"XO;:***&&&&&&&&*&*&&&&&*%X@;:*&*&&&&&&&*&&*&*&*&*$.%:-&&&&&&&&&*",
"XO;>*&&********&&******&%X@::&&********&**&*&*&**$.$>;*&*******&",
"oO-:*****&&****&&****&**%X@:;*&**&&****&*&*&***&*$.%>;&**&&****&",
"XO;:*&&&*&*&&&*&*&&&*&&*%.@::&*&*&*&&&*&&*&*&&&**#.%:;*&*&*&&&*&",
"oO->;;;;;;;;;;;;;;;;;;;:*X@::;;;;;;;;;;;;;;;;;;;;%.$::;;;;;;;;;;",
"XO;:>:>>>:>>>>>:>:>:>>:>-X@::>>>:>>::>>>:>:>>::>,* %>:>:>:>>>>>:",
"oo#%$$$$$$$$$$$$$$%$$$$%#XO$%$$$%$$$$$$$$$$$$%$$%@X@%$$%$$$$$$$$",
"oXX.........XX...........oX..........XX ...X......XX..........XX",
"$$%$$$%$$$%$+o$=%$$$$$$$$$$$$%$$$$$$%Oo%*%$$%$$$$$$$$$$$%$$$$$Oo",
"************#.*>-*****=*=**=&********+X->=*********=********=&oo",
"&**&*&&**&&*@X&>-&*****&&**&******&**+o=>=&&&&**&**&&**&&**&*%Oo",
"**&**&**&***@.&>-&&&*&*&**&*&*&&*&*&&+X->=&***&***&***&**&*&*&OX",
"&***&&****&*@.&>-&**&**&&***&********+X-:=&***&*&&**&***&****&oo",
"&&&&&*&&&&&*#.*>-&&&&&*&*&&&&&&&&&&&&+X=>=&&&&&&&*&&*&&&&&&&&%oo",
"--===-==-=--#.&>-==--======-=-====-=-+X=:-=-===-=-=====-=-==-*OX",
":>>>>>>>>>:>% *>>>>>:>>>>>>:>>>>>>>>>@X->>>>>>>>>>>>>>>:>>>>>;Oo",
"*=*====*=*==#X$=*=====*=**==*=*===*==+X%-==*=*===***====*==*=*oo",
"XX....X..X..XXX....X.X..XXX .X....X.XXoX..X.X...X.oX ..X.X.X.XXX",
"oo##@+@+@+@+@+@@@@@+@+@@+oO$#@@@@@@+@+@+@@@++@+@@OX+$#++@@@+@+@@",
"oO;>*****&****&**&&***&*%X@:;*&*&&**&***&&*****&*$.%>;***&*&***&",
"XO;>*&***&**&*&&*&***&**%X@::*&**&&**&****&**&***$.%>;&&&***&**&",
"XO;:***&&**&****&**&*&&*%.@:;**&***&&**&&**&&*&**#.%:-**&*&**&&*",
"XO-:*&&*&*&**&*&&*&***&*%.@:;***&*&*&*&**&***&*&*$.$>;&******&**",
"XO;>*&*&*&*&&*&**&*&&&**%X@::&&&&*&**&*&*&&&&*&**$.%>;&*&&&&&*&&",
"oO;:=*=***********=*****%X@;:***********=*****=**$.$>;**********",
"XO;>::::::>>:::::::::::>-.#:::>>:>:>::::::::::::>* %>::::>:::>::",
"oO-:;;;:;;;;;:;:;;;:;;;:=X@;:;;;;;;;;:;;:;:;;;;;:&.$:;:;;;;:;:;;",
"XoOOO++++++++++OO+++++++OXoOO+++++++++++O+O+++++OOXO++O+++++++++",
"OooooooXXooooXooooXoXooXoooooooXooXooXXoOooXooXoooooXooXooooooXX",
"&%&%&&&&&&&&@.&:=&&&&&&&&&&%&&&&&&&&&+X=;*&&&&&&&&&&&&&&&&&&&%Oo",
"************#.&,-&*******************+X->=&*****&*****&******&oo",
"*&*&*&&**&&*@.&>-&&*&**&*&*&*&&**&&**+X=:=&*&*&****&*&**&*&&*&oo",
"&&*&**&**&**@.&>-*&**&***&****&*&**&*+o=>=&**&**&**&*&&**&***%oo",
"****&**&&*&*#.*>=&&*&**&&**&&**&**&*&+X-:=*&**&&&**&******&&*%oo",
"&*&&*&&*&*&*#.&>-&*&&*&*&*&&*&&*&&&**+X=>=&*&&&*&*&*&&*&&&&**&Oo",
";;;;;;;;;;;;$ *>;;;;;;;;;;;;;;;;;;;;;+X->;;;;;;;;;;;;;-;;;;;;=OX",
">>>>>>>>>>>,%.*>:>>>>>>>>>>>>>>>>>>>>@X=>>>>>>>>>>>>>>>>>>>:>:OX",
"$$$$$$$%$$$$+X@$$$$$$$$%$$$$$$$$$$%$$Oo#$$$$$$$%$$$$%$$$$$$$$$oo",
"XX. ....X.X.XoXXXX.X....XX..X..X.X..XXo..XX.....X.X...X.XX.XXXoX",
"oO&*%%$$$$$$$$$$$$$$$$$%#o+**$$$$$$$$$$$$$$$%$$$$@X#*&$$$$$$$$$$",
"X+;>*********=*=****=***%X@::***=*******=*******=$.%,:**********",
"oO;>*&&*&**&&&&&&*&&&*&*%X@::*&&*&&&&**&*&&&&**&*$.$:;&&&&*&&**&",
"XO;:=&***&&**&*&********%X@:;*&*&&****&*&&****&&*$.%>-&&**&**&&*",
"XO-:*&*&&**&***&*&&*&&*&%X@:;*****&*&**&**&**&***#.%>-***&*&**&*",
"XO;:*&&*&&*&&&&*&*&*&&&*%.@:;*&&*&&**&*&&&*&*&*&*#.%>;&&&**&&&&*",
"oO;:=-===-==-========-=-&X@::===========-========%.$:;-=====-===",
"XO;,>>>>:>>:>:>>>>>>:>>>-X@:>>>>>>>>:>>>:>>>>>:>>* %>>>>>>>>>:>>",
"oO&=****=**===***=**=**=&X+==*=******=*=*=*=**=*=%.#=*=***=*==**",
"XoXXXXXXXXX.XXX..XXX.XXXXXXXXX.XXXXXXoX...XXX.XXXXXXXX.XXXXX.XXo",
"@+++@+@++@+@OX+$#++@@@+++@@+@+@++@@++Oo@#@@+@++@@+@+@+@++@++@+oo",
"************#X*>-&*******&***********+X-:=*******************&oo",
"&*&**&*&**&*@.*>-*&&*&*&***&&*&*&&*&*+X=>=*&&*&**&&*&*&*&*&**&oo",
"&**&*&&*&*&*@.&>-&&&*&**&**&*&&***&*&+X->=&**&*&*&&*&**&**&&*&oo",
"**&*&****&**#.*>-&****&***&*&****&***+X=:=*&&**&&*****&**&***&oo",
"&&&**&&&&&*&#.&>-&*&&*&&&&&**&&&&&&&*+o=>=*&*&***&&&&&&*&&&&*%oo",
"*=**=*=*=**=#.&>-******=*=**=*=**==**+X=:=******=*=**=*=*==***oo",
":::;:;::::::$.&>:::::;:::::;;:::::;::@X=:::::;::;::::::;:;:::;Oo",
"::::::::::::%.*::::::::>:::::::::>:::@X=>::::::::::::::::::::;OX"
};
